<?xml version="1.0" encoding="iso-8859-1"?>
<!-- Generator: Adobe Illustrator 19.0.0, SVG Export Plug-In . SVG Version: 6.00 Build 0)  -->
<svg version="1.1" id="Capa_1" xmlns="http://www.w3.org/2000/svg" xmlns:xlink="http://www.w3.org/1999/xlink" x="0px" y="0px"
	 viewBox="0 0 511.995 511.995" style="enable-background:new 0 0 511.995 511.995;" xml:space="preserve">
<polyline style="fill:#625765;" points="94.697,509.63 69.605,509.63 41.366,509.63 0,509.63 0,228.249 69.605,228.249 "/>
<g>
	<path style="fill:#351B1B;" d="M24.494,388.33c-4.333,0-7.844-3.512-7.844-7.844v-17.781c0-4.332,3.511-7.844,7.844-7.844
		s7.844,3.512,7.844,7.844v17.781C32.339,384.818,28.827,388.33,24.494,388.33z"/>
	<path style="fill:#351B1B;" d="M88.135,388.33c-4.333,0-7.844-3.512-7.844-7.844v-17.781c0-4.332,3.511-7.844,7.844-7.844
		s7.844,3.512,7.844,7.844v17.781C95.979,384.818,92.467,388.33,88.135,388.33z"/>
	<path style="fill:#351B1B;" d="M56.314,388.33c-4.333,0-7.844-3.512-7.844-7.844v-17.781c0-4.332,3.511-7.844,7.844-7.844
		s7.844,3.512,7.844,7.844v17.781C64.158,384.818,60.646,388.33,56.314,388.33z"/>
	<path style="fill:#351B1B;" d="M24.494,288.702c-4.333,0-7.844-3.512-7.844-7.844v-17.78c0-4.332,3.511-7.844,7.844-7.844
		s7.844,3.512,7.844,7.844v17.78C32.339,285.189,28.827,288.702,24.494,288.702z"/>
	<path style="fill:#351B1B;" d="M88.135,288.702c-4.333,0-7.844-3.512-7.844-7.844v-17.78c0-4.332,3.511-7.844,7.844-7.844
		s7.844,3.512,7.844,7.844v17.78C95.979,285.189,92.467,288.702,88.135,288.702z"/>
	<path style="fill:#351B1B;" d="M56.314,288.702c-4.333,0-7.844-3.512-7.844-7.844v-17.78c0-4.332,3.511-7.844,7.844-7.844
		s7.844,3.512,7.844,7.844v17.78C64.158,285.189,60.646,288.702,56.314,288.702z"/>
	<path style="fill:#351B1B;" d="M24.494,338.515c-4.333,0-7.844-3.512-7.844-7.844v-17.78c0-4.332,3.511-7.844,7.844-7.844
		s7.844,3.512,7.844,7.844v17.78C32.339,335.003,28.827,338.515,24.494,338.515z"/>
	<path style="fill:#351B1B;" d="M88.135,338.515c-4.333,0-7.844-3.512-7.844-7.844v-17.78c0-4.332,3.511-7.844,7.844-7.844
		s7.844,3.512,7.844,7.844v17.78C95.979,335.003,92.467,338.515,88.135,338.515z"/>
	<path style="fill:#351B1B;" d="M56.314,338.515c-4.333,0-7.844-3.512-7.844-7.844v-17.78c0-4.332,3.511-7.844,7.844-7.844
		s7.844,3.512,7.844,7.844v17.78C64.158,335.003,60.646,338.515,56.314,338.515z"/>
	<path style="fill:#351B1B;" d="M24.494,487.957c-4.333,0-7.844-3.512-7.844-7.844v-17.781c0-4.332,3.511-7.844,7.844-7.844
		s7.844,3.512,7.844,7.844v17.781C32.339,484.445,28.827,487.957,24.494,487.957z"/>
	<path style="fill:#351B1B;" d="M88.135,487.957c-4.333,0-7.844-3.512-7.844-7.844v-17.781c0-4.332,3.511-7.844,7.844-7.844
		s7.844,3.512,7.844,7.844v17.781C95.979,484.445,92.467,487.957,88.135,487.957z"/>
	<path style="fill:#351B1B;" d="M56.314,487.957c-4.333,0-7.844-3.512-7.844-7.844v-17.781c0-4.332,3.511-7.844,7.844-7.844
		s7.844,3.512,7.844,7.844v17.781C64.158,484.445,60.646,487.957,56.314,487.957z"/>
	<path style="fill:#351B1B;" d="M24.494,438.143c-4.333,0-7.844-3.512-7.844-7.844v-17.781c0-4.332,3.511-7.844,7.844-7.844
		s7.844,3.512,7.844,7.844v17.781C32.339,434.631,28.827,438.143,24.494,438.143z"/>
	<path style="fill:#351B1B;" d="M88.135,438.143c-4.333,0-7.844-3.512-7.844-7.844v-17.781c0-4.332,3.511-7.844,7.844-7.844
		s7.844,3.512,7.844,7.844v17.781C95.979,434.631,92.467,438.143,88.135,438.143z"/>
	<path style="fill:#351B1B;" d="M56.314,438.143c-4.333,0-7.844-3.512-7.844-7.844v-17.781c0-4.332,3.511-7.844,7.844-7.844
		s7.844,3.512,7.844,7.844v17.781C64.158,434.631,60.646,438.143,56.314,438.143z"/>
</g>
<polyline style="fill:#C3DFAD;" points="300.978,509.63 267.272,99.703 69.605,99.703 69.605,228.249 69.605,509.63 "/>
<g>
	<path style="fill:#351B1B;" d="M203.994,316.196H100.981c-4.333,0-7.844-3.512-7.844-7.844s3.511-7.844,7.844-7.844h103.013
		c4.333,0,7.844,3.512,7.844,7.844S208.327,316.196,203.994,316.196z"/>
	<path style="fill:#351B1B;" d="M235.897,237.12H100.981c-4.333,0-7.844-3.512-7.844-7.844c0-4.332,3.511-7.844,7.844-7.844h134.916
		c4.333,0,7.844,3.512,7.844,7.844C243.741,233.608,240.23,237.12,235.897,237.12z"/>
	<path style="fill:#351B1B;" d="M203.994,276.658H100.981c-4.333,0-7.844-3.512-7.844-7.844c0-4.332,3.511-7.844,7.844-7.844
		h103.013c4.333,0,7.844,3.512,7.844,7.844C211.838,273.146,208.327,276.658,203.994,276.658z"/>
	<path style="fill:#351B1B;" d="M235.897,158.043H100.981c-4.333,0-7.844-3.512-7.844-7.844s3.511-7.844,7.844-7.844h134.916
		c4.333,0,7.844,3.512,7.844,7.844S240.23,158.043,235.897,158.043z"/>
	<path style="fill:#351B1B;" d="M235.897,197.582H100.981c-4.333,0-7.844-3.512-7.844-7.844c0-4.332,3.511-7.844,7.844-7.844
		h134.916c4.333,0,7.844,3.512,7.844,7.844C243.741,194.069,240.23,197.582,235.897,197.582z"/>
	<rect x="166.865" y="458.661" style="fill:#351B1B;" width="37.129" height="15.689"/>
	<rect x="166.865" y="379.59" style="fill:#351B1B;" width="37.129" height="15.689"/>
	<rect x="166.865" y="419.126" style="fill:#351B1B;" width="37.129" height="15.689"/>
	<rect x="166.865" y="340.044" style="fill:#351B1B;" width="37.129" height="15.689"/>
</g>
<polyline style="fill:#76DBFF;" points="267.272,509.632 267.272,2.363 422.58,2.363 422.58,509.632 "/>
<g>
	<rect x="267.272" y="51.07" style="fill:#60B0C6;" width="155.307" height="15.689"/>
	<rect x="267.272" y="107.998" style="fill:#60B0C6;" width="155.307" height="15.689"/>
	<rect x="267.272" y="164.917" style="fill:#60B0C6;" width="155.307" height="15.689"/>
	<rect x="267.272" y="221.846" style="fill:#60B0C6;" width="155.307" height="15.689"/>
	<rect x="336.815" y="278.764" style="fill:#60B0C6;" width="85.765" height="15.689"/>
</g>
<rect x="41.363" y="308.353" style="fill:#BDC6C6;" width="125.499" height="201.275"/>
<rect x="372.962" y="314.629" style="fill:#625765;" width="139.033" height="195"/>
<rect x="203.995" y="229.272" style="fill:#94A2A2;" width="132.82" height="280.357"/>
<g>
	<rect x="336.815" y="335.693" style="fill:#60B0C6;" width="36.147" height="15.689"/>
	<rect x="336.815" y="392.612" style="fill:#60B0C6;" width="36.147" height="15.689"/>
	<rect x="336.815" y="449.541" style="fill:#60B0C6;" width="36.147" height="15.689"/>
</g>
<g>
	<path style="fill:#351B1B;" d="M72.294,368.724c-4.333,0-7.844-3.512-7.844-7.844v-17.78c0-4.332,3.511-7.844,7.844-7.844
		s7.844,3.512,7.844,7.844v17.78C80.139,365.212,76.628,368.724,72.294,368.724z"/>
	<path style="fill:#351B1B;" d="M135.935,368.724c-4.333,0-7.844-3.512-7.844-7.844v-17.78c0-4.332,3.511-7.844,7.844-7.844
		s7.844,3.512,7.844,7.844v17.78C143.779,365.212,140.267,368.724,135.935,368.724z"/>
	<path style="fill:#351B1B;" d="M104.115,368.724c-4.333,0-7.844-3.512-7.844-7.844v-17.78c0-4.332,3.511-7.844,7.844-7.844
		c4.333,0,7.844,3.512,7.844,7.844v17.78C111.96,365.212,108.449,368.724,104.115,368.724z"/>
	<path style="fill:#351B1B;" d="M72.294,482.729c-4.333,0-7.844-3.512-7.844-7.844v-17.78c0-4.332,3.511-7.844,7.844-7.844
		s7.844,3.512,7.844,7.844v17.78C80.139,479.216,76.628,482.729,72.294,482.729z"/>
	<path style="fill:#351B1B;" d="M135.935,482.729c-4.333,0-7.844-3.512-7.844-7.844v-17.78c0-4.332,3.511-7.844,7.844-7.844
		s7.844,3.512,7.844,7.844v17.78C143.779,479.216,140.267,482.729,135.935,482.729z"/>
	<path style="fill:#351B1B;" d="M104.115,482.729c-4.333,0-7.844-3.512-7.844-7.844v-17.78c0-4.332,3.511-7.844,7.844-7.844
		c4.333,0,7.844,3.512,7.844,7.844v17.78C111.96,479.216,108.449,482.729,104.115,482.729z"/>
	<path style="fill:#351B1B;" d="M72.294,425.726c-4.333,0-7.844-3.512-7.844-7.844v-17.78c0-4.332,3.511-7.844,7.844-7.844
		s7.844,3.512,7.844,7.844v17.78C80.139,422.214,76.628,425.726,72.294,425.726z"/>
	<path style="fill:#351B1B;" d="M135.935,425.726c-4.333,0-7.844-3.512-7.844-7.844v-17.78c0-4.332,3.511-7.844,7.844-7.844
		s7.844,3.512,7.844,7.844v17.78C143.779,422.214,140.267,425.726,135.935,425.726z"/>
	<path style="fill:#351B1B;" d="M104.115,425.726c-4.333,0-7.844-3.512-7.844-7.844v-17.78c0-4.332,3.511-7.844,7.844-7.844
		c4.333,0,7.844,3.512,7.844,7.844v17.78C111.96,422.214,108.449,425.726,104.115,425.726z"/>
</g>
<polygon style="fill:#76DBFF;" points="399.078,342.567 399.078,398.256 399.078,418.919 399.078,426.099 399.078,453.943 
	399.078,481.787 399.078,509.632 485.889,509.632 485.889,481.787 485.889,453.943 485.889,426.099 485.889,418.919 
	485.889,398.256 485.889,342.567 "/>
<g>
	<path style="fill:#351B1B;" d="M238.586,388.331c-4.333,0-7.844-3.512-7.844-7.844v-17.78c0-4.332,3.511-7.844,7.844-7.844
		s7.844,3.512,7.844,7.844v17.78C246.43,384.819,242.919,388.331,238.586,388.331z"/>
	<path style="fill:#351B1B;" d="M302.227,388.331c-4.333,0-7.844-3.512-7.844-7.844v-17.78c0-4.332,3.511-7.844,7.844-7.844
		s7.844,3.512,7.844,7.844v17.78C310.071,384.819,306.56,388.331,302.227,388.331z"/>
	<path style="fill:#351B1B;" d="M270.406,388.331c-4.333,0-7.844-3.512-7.844-7.844v-17.78c0-4.332,3.511-7.844,7.844-7.844
		s7.844,3.512,7.844,7.844v17.78C278.25,384.819,274.739,388.331,270.406,388.331z"/>
	<path style="fill:#351B1B;" d="M238.586,288.703c-4.333,0-7.844-3.512-7.844-7.844v-17.781c0-4.332,3.511-7.844,7.844-7.844
		s7.844,3.512,7.844,7.844v17.781C246.43,285.19,242.919,288.703,238.586,288.703z"/>
	<path style="fill:#351B1B;" d="M302.227,288.703c-4.333,0-7.844-3.512-7.844-7.844v-17.781c0-4.332,3.511-7.844,7.844-7.844
		s7.844,3.512,7.844,7.844v17.781C310.071,285.19,306.56,288.703,302.227,288.703z"/>
	<path style="fill:#351B1B;" d="M270.406,288.703c-4.333,0-7.844-3.512-7.844-7.844v-17.781c0-4.332,3.511-7.844,7.844-7.844
		s7.844,3.512,7.844,7.844v17.781C278.25,285.19,274.739,288.703,270.406,288.703z"/>
	<path style="fill:#351B1B;" d="M238.586,338.516c-4.333,0-7.844-3.512-7.844-7.844v-17.781c0-4.332,3.511-7.844,7.844-7.844
		s7.844,3.512,7.844,7.844v17.781C246.43,335.004,242.919,338.516,238.586,338.516z"/>
	<path style="fill:#351B1B;" d="M302.227,338.516c-4.333,0-7.844-3.512-7.844-7.844v-17.781c0-4.332,3.511-7.844,7.844-7.844
		s7.844,3.512,7.844,7.844v17.781C310.071,335.004,306.56,338.516,302.227,338.516z"/>
	<path style="fill:#351B1B;" d="M270.406,338.516c-4.333,0-7.844-3.512-7.844-7.844v-17.781c0-4.332,3.511-7.844,7.844-7.844
		s7.844,3.512,7.844,7.844v17.781C278.25,335.004,274.739,338.516,270.406,338.516z"/>
	<path style="fill:#351B1B;" d="M238.586,487.958c-4.333,0-7.844-3.512-7.844-7.844v-17.78c0-4.332,3.511-7.844,7.844-7.844
		s7.844,3.512,7.844,7.844v17.78C246.43,484.446,242.919,487.958,238.586,487.958z"/>
	<path style="fill:#351B1B;" d="M302.227,487.958c-4.333,0-7.844-3.512-7.844-7.844v-17.78c0-4.332,3.511-7.844,7.844-7.844
		s7.844,3.512,7.844,7.844v17.78C310.071,484.446,306.56,487.958,302.227,487.958z"/>
	<path style="fill:#351B1B;" d="M270.406,487.958c-4.333,0-7.844-3.512-7.844-7.844v-17.78c0-4.332,3.511-7.844,7.844-7.844
		s7.844,3.512,7.844,7.844v17.78C278.25,484.446,274.739,487.958,270.406,487.958z"/>
	<path style="fill:#351B1B;" d="M238.586,438.145c-4.333,0-7.844-3.512-7.844-7.844v-17.78c0-4.332,3.511-7.844,7.844-7.844
		s7.844,3.512,7.844,7.844v17.78C246.43,434.632,242.919,438.145,238.586,438.145z"/>
	<path style="fill:#351B1B;" d="M302.227,438.145c-4.333,0-7.844-3.512-7.844-7.844v-17.78c0-4.332,3.511-7.844,7.844-7.844
		s7.844,3.512,7.844,7.844v17.78C310.071,434.632,306.56,438.145,302.227,438.145z"/>
	<path style="fill:#351B1B;" d="M270.406,438.145c-4.333,0-7.844-3.512-7.844-7.844v-17.78c0-4.332,3.511-7.844,7.844-7.844
		s7.844,3.512,7.844,7.844v17.78C278.25,434.632,274.739,438.145,270.406,438.145z"/>
</g>
<g>
	<rect x="387.353" y="473.942" style="fill:#625765;" width="110.25" height="15.689"/>
	<rect x="387.353" y="437.743" style="fill:#625765;" width="110.25" height="15.689"/>
	<rect x="387.353" y="401.544" style="fill:#625765;" width="110.25" height="15.689"/>
	<rect x="387.353" y="365.345" style="fill:#625765;" width="110.25" height="15.689"/>
</g>
<g>
</g>
<g>
</g>
<g>
</g>
<g>
</g>
<g>
</g>
<g>
</g>
<g>
</g>
<g>
</g>
<g>
</g>
<g>
</g>
<g>
</g>
<g>
</g>
<g>
</g>
<g>
</g>
<g>
</g>
</svg>
