<svg height="676.6666600000001" version="1.1" width="1146.6666599999999" xmlns="http://www.w3.org/2000/svg" style="overflow: hidden; position: relative; left: -0.166687px; top: -0.333344px;"><desc>Created with Raphaël 2.0.1</desc><defs></defs><rect x="0" y="0" width="1146.6666599999999" height="676.6666600000001" r="0" rx="0" ry="0" fill="#1648b1" stroke="none" style=""></rect><path style="opacity: 0.56;" fill="#1ec369" stroke="#b60c83" d="M652,197S351,614,425,351" stroke-width="13" opacity="0.56"></path><path style="opacity: 0.56;" fill="#1ec369" stroke="#b60c83" d="M652,197S643,514,824,592" stroke-width="10" opacity="0.56"></path><path style="opacity: 0.56;" fill="#1ec369" stroke="#b60c83" d="M652,197S875,609,242,79" stroke-width="12" opacity="0.56"></path><path style="opacity: 0.56;" fill="#1ec369" stroke="#b60c83" d="M652,197S930,329,545,341" stroke-width="16" opacity="0.56"></path><path style="opacity: 0.56;" fill="#1ec369" stroke="#b60c83" d="M652,197S395,47,684,42" stroke-width="15" opacity="0.56"></path><path style="opacity: 0.56;" fill="#1ec369" stroke="#b60c83" d="M652,197S497,189,240,508" stroke-width="8" opacity="0.56"></path><path style="opacity: 0.56;" fill="#1ec369" stroke="#b60c83" d="M652,197S782,321,398,523" stroke-width="16" opacity="0.56"></path><path style="opacity: 0.56;" fill="#1ec369" stroke="#b60c83" d="M652,197S933,130,279,622" stroke-width="15" opacity="0.56"></path><path style="opacity: 0.56;" fill="#1ec369" stroke="#b60c83" d="M652,197S530,29,355,572" stroke-width="14" opacity="0.56"></path><path style="opacity: 0.56;" fill="#1ec369" stroke="#b60c83" d="M652,197S262,444,528,183" stroke-width="9" opacity="0.56"></path><path style="opacity: 0.56;" fill="#1ec369" stroke="#b60c83" d="M652,197S196,315,303,533" stroke-width="10" opacity="0.56"></path><path style="opacity: 0.56;" fill="#1ec369" stroke="#b60c83" d="M652,197S223,347,508,563" stroke-width="11" opacity="0.56"></path><path style="opacity: 0.56;" fill="#1ec369" stroke="#b60c83" d="M652,197S323,137,282,22" stroke-width="11" opacity="0.56"></path><path style="opacity: 0.56;" fill="#1ec369" stroke="#b60c83" d="M652,197S921,206,423,513" stroke-width="10" opacity="0.56"></path><path style="opacity: 0.56;" fill="#1ec369" stroke="#b60c83" d="M652,197S297,334,481,661" stroke-width="8" opacity="0.56"></path><path style="opacity: 0.56;" fill="#1ec369" stroke="#b60c83" d="M652,197S787,495,388,517" stroke-width="14" opacity="0.56"></path><path style="opacity: 0.56;" fill="#1ec369" stroke="#b60c83" d="M652,197S251,564,632,411" stroke-width="9" opacity="0.56"></path><path style="opacity: 0.56;" fill="#1ec369" stroke="#b60c83" d="M652,197S612,521,259,225" stroke-width="15" opacity="0.56"></path><path style="opacity: 0.56;" fill="#1ec369" stroke="#b60c83" d="M652,197S471,235,865,497" stroke-width="16" opacity="0.56"></path><path style="opacity: 0.56;" fill="#1ec369" stroke="#b60c83" d="M652,197S283,368,835,313" stroke-width="8" opacity="0.56"></path><path style="opacity: 0.56;" fill="#1ec369" stroke="#b60c83" d="M652,197S293,217,830,453" stroke-width="9" opacity="0.56"></path><path style="opacity: 0.56;" fill="#1ec369" stroke="#b60c83" d="M652,197S828,363,369,143" stroke-width="9" opacity="0.56"></path><path style="opacity: 0.56;" fill="#1ec369" stroke="#b60c83" d="M652,197S347,153,836,573" stroke-width="15" opacity="0.56"></path><path style="opacity: 0.56;" fill="#1ec369" stroke="#b60c83" d="M652,197S903,529,901,195" stroke-width="11" opacity="0.56"></path><path style="opacity: 0.56;" fill="#1ec369" stroke="#b60c83" d="M652,197S279,153,608,315" stroke-width="13" opacity="0.56"></path><path style="opacity: 0.56;" fill="#1ec369" stroke="#b60c83" d="M652,197S840,106,821,449" stroke-width="13" opacity="0.56"></path><path style="opacity: 0.56;" fill="#1ec369" stroke="#b60c83" d="M652,197S222,273,829,394" stroke-width="14" opacity="0.56"></path><path style="opacity: 0.56;" fill="#1ec369" stroke="#b60c83" d="M652,197S195,102,469,387" stroke-width="15" opacity="0.56"></path><path style="opacity: 0.56;" fill="#1ec369" stroke="#b60c83" d="M652,197S599,487,412,587" stroke-width="10" opacity="0.56"></path><path style="opacity: 0.56;" fill="#1ec369" stroke="#b60c83" d="M652,197S241,247,262,257" stroke-width="10" opacity="0.56"></path><path style="opacity: 0.56;" fill="#1ec369" stroke="#b60c83" d="M652,197S691,458,238,417" stroke-width="14" opacity="0.56"></path></svg>