<svg height="677.3333399999999" version="1.1" width="1147.3333400000001" xmlns="http://www.w3.org/2000/svg" style="overflow: hidden; position: relative; top: -0.666657px;"><desc>Created with Raphaël 2.0.1</desc><defs></defs><rect x="0" y="0" width="1147.3333400000001" height="677.3333399999999" r="0" rx="0" ry="0" fill="#4ae7ca" stroke="none" style=""></rect><path style="opacity: 0.76;" fill="#955a5b" stroke="#c4645a" d="M632,501S812,563,646,229" stroke-width="57" opacity="0.76"></path><path style="opacity: 0.76;" fill="#955a5b" stroke="#c4645a" d="M632,501S478,167,687,614" stroke-width="136" opacity="0.76"></path><path style="opacity: 0.76;" fill="#955a5b" stroke="#c4645a" d="M632,501S828,348,343,601" stroke-width="76" opacity="0.76"></path><path style="opacity: 0.76;" fill="#955a5b" stroke="#c4645a" d="M632,501S470,452,486,301" stroke-width="76" opacity="0.76"></path><path style="opacity: 0.76;" fill="#955a5b" stroke="#c4645a" d="M632,501S905,329,363,131" stroke-width="94" opacity="0.76"></path><path style="opacity: 0.76;" fill="#955a5b" stroke="#c4645a" d="M632,501S399,223,448,620" stroke-width="100" opacity="0.76"></path><path style="opacity: 0.76;" fill="#955a5b" stroke="#c4645a" d="M632,501S510,576,224,143" stroke-width="64" opacity="0.76"></path><path style="opacity: 0.76;" fill="#955a5b" stroke="#c4645a" d="M632,501S313,541,304,178" stroke-width="111" opacity="0.76"></path><path style="opacity: 0.76;" fill="#955a5b" stroke="#c4645a" d="M632,501S295,231,920,330" stroke-width="147" opacity="0.76"></path><path style="opacity: 0.76;" fill="#955a5b" stroke="#c4645a" d="M632,501S216,600,489,135" stroke-width="135" opacity="0.76"></path><path style="opacity: 0.76;" fill="#955a5b" stroke="#c4645a" d="M632,501S262,295,897,320" stroke-width="154" opacity="0.76"></path><path style="opacity: 0.76;" fill="#955a5b" stroke="#c4645a" d="M632,501S519,524,431,162" stroke-width="42" opacity="0.76"></path><path style="opacity: 0.76;" fill="#955a5b" stroke="#c4645a" d="M632,501S779,101,825,609" stroke-width="160" opacity="0.76"></path><path style="opacity: 0.76;" fill="#955a5b" stroke="#c4645a" d="M632,501S744,599,220,461" stroke-width="140" opacity="0.76"></path><path style="opacity: 0.76;" fill="#955a5b" stroke="#c4645a" d="M632,501S484,277,548,310" stroke-width="61" opacity="0.76"></path><path style="opacity: 0.76;" fill="#955a5b" stroke="#c4645a" d="M632,501S609,268,239,584" stroke-width="74" opacity="0.76"></path><path style="opacity: 0.76;" fill="#955a5b" stroke="#c4645a" d="M632,501S364,606,287,511" stroke-width="161" opacity="0.76"></path><path style="opacity: 0.76;" fill="#955a5b" stroke="#c4645a" d="M632,501S240,512,853,235" stroke-width="160" opacity="0.76"></path><path style="opacity: 0.76;" fill="#955a5b" stroke="#c4645a" d="M632,501S294,569,802,167" stroke-width="129" opacity="0.76"></path><path style="opacity: 0.76;" fill="#955a5b" stroke="#c4645a" d="M632,501S841,400,433,529" stroke-width="130" opacity="0.76"></path><path style="opacity: 0.76;" fill="#955a5b" stroke="#c4645a" d="M632,501S448,238,458,383" stroke-width="17" opacity="0.76"></path><path style="opacity: 0.76;" fill="#955a5b" stroke="#c4645a" d="M632,501S509,299,462,354" stroke-width="82" opacity="0.76"></path><path style="opacity: 0.76;" fill="#955a5b" stroke="#c4645a" d="M632,501S533,253,665,607" stroke-width="154" opacity="0.76"></path><path style="opacity: 0.76;" fill="#955a5b" stroke="#c4645a" d="M632,501S919,524,265,429" stroke-width="67" opacity="0.76"></path><path style="opacity: 0.76;" fill="#955a5b" stroke="#c4645a" d="M632,501S849,224,472,218" stroke-width="124" opacity="0.76"></path><path style="opacity: 0.76;" fill="#955a5b" stroke="#c4645a" d="M632,501S831,380,450,522" stroke-width="109" opacity="0.76"></path><path style="opacity: 0.76;" fill="#955a5b" stroke="#c4645a" d="M632,501S916,261,685,67" stroke-width="143" opacity="0.76"></path><path style="opacity: 0.76;" fill="#955a5b" stroke="#c4645a" d="M632,501S280,313,815,482" stroke-width="48" opacity="0.76"></path></svg>