<svg height="677.3333399999999" version="1.1" width="1147.3333400000001" xmlns="http://www.w3.org/2000/svg" style="overflow: hidden; position: relative; top: -0.666657px;"><desc>Created with Raphaël 2.0.1</desc><defs></defs><rect x="0" y="0" width="1147.3333400000001" height="677.3333399999999" r="0" rx="0" ry="0" fill="#86dede" stroke="none" style=""></rect><path style="opacity: 0.22;" fill="none" stroke="#3e915f" d="M0,0L0,677.3333399999999" stroke-width="41" opacity="0.22"></path><path style="opacity: 0.22;" fill="none" stroke="#3e915f" d="M4,0L4,677.3333399999999" stroke-width="44" opacity="0.22"></path><path style="opacity: 0.22;" fill="none" stroke="#3e915f" d="M11,0L11,677.3333399999999" stroke-width="39" opacity="0.22"></path><path style="opacity: 0.22;" fill="none" stroke="#3e915f" d="M20,0L20,677.3333399999999" stroke-width="40" opacity="0.22"></path><path style="opacity: 0.22;" fill="none" stroke="#3e915f" d="M37,0L37,677.3333399999999" stroke-width="43" opacity="0.22"></path><path style="opacity: 0.22;" fill="none" stroke="#3e915f" d="M37,0L37,677.3333399999999" stroke-width="38" opacity="0.22"></path><path style="opacity: 0.22;" fill="none" stroke="#3e915f" d="M39,0L39,677.3333399999999" stroke-width="37" opacity="0.22"></path><path style="opacity: 0.22;" fill="none" stroke="#3e915f" d="M42,0L42,677.3333399999999" stroke-width="45" opacity="0.22"></path><path style="opacity: 0.22;" fill="none" stroke="#3e915f" d="M45,0L45,677.3333399999999" stroke-width="46" opacity="0.22"></path><path style="opacity: 0.22;" fill="none" stroke="#3e915f" d="M50,0L50,677.3333399999999" stroke-width="47" opacity="0.22"></path><path style="opacity: 0.22;" fill="none" stroke="#3e915f" d="M58,0L58,677.3333399999999" stroke-width="37" opacity="0.22"></path><path style="opacity: 0.22;" fill="none" stroke="#3e915f" d="M58,0L58,677.3333399999999" stroke-width="45" opacity="0.22"></path><path style="opacity: 0.22;" fill="none" stroke="#3e915f" d="M74,0L74,677.3333399999999" stroke-width="40" opacity="0.22"></path><path style="opacity: 0.22;" fill="none" stroke="#3e915f" d="M74,0L74,677.3333399999999" stroke-width="47" opacity="0.22"></path><path style="opacity: 0.22;" fill="none" stroke="#3e915f" d="M76,0L76,677.3333399999999" stroke-width="48" opacity="0.22"></path><path style="opacity: 0.22;" fill="none" stroke="#3e915f" d="M85,0L85,677.3333399999999" stroke-width="37" opacity="0.22"></path><path style="opacity: 0.22;" fill="none" stroke="#3e915f" d="M85,0L85,677.3333399999999" stroke-width="35" opacity="0.22"></path><path style="opacity: 0.22;" fill="none" stroke="#3e915f" d="M92,0L92,677.3333399999999" stroke-width="38" opacity="0.22"></path><path style="opacity: 0.22;" fill="none" stroke="#3e915f" d="M98,0L98,677.3333399999999" stroke-width="45" opacity="0.22"></path><path style="opacity: 0.22;" fill="none" stroke="#3e915f" d="M115,0L115,677.3333399999999" stroke-width="36" opacity="0.22"></path><path style="opacity: 0.22;" fill="none" stroke="#3e915f" d="M119,0L119,677.3333399999999" stroke-width="47" opacity="0.22"></path><path style="opacity: 0.22;" fill="none" stroke="#3e915f" d="M137,0L137,677.3333399999999" stroke-width="40" opacity="0.22"></path><path style="opacity: 0.22;" fill="none" stroke="#3e915f" d="M153,0L153,677.3333399999999" stroke-width="36" opacity="0.22"></path><path style="opacity: 0.22;" fill="none" stroke="#3e915f" d="M173,0L173,677.3333399999999" stroke-width="43" opacity="0.22"></path><path style="opacity: 0.22;" fill="none" stroke="#3e915f" d="M186,0L186,677.3333399999999" stroke-width="42" opacity="0.22"></path><path style="opacity: 0.22;" fill="none" stroke="#3e915f" d="M203,0L203,677.3333399999999" stroke-width="48" opacity="0.22"></path><path style="opacity: 0.22;" fill="none" stroke="#3e915f" d="M205,0L205,677.3333399999999" stroke-width="44" opacity="0.22"></path><path style="opacity: 0.22;" fill="none" stroke="#3e915f" d="M214,0L214,677.3333399999999" stroke-width="37" opacity="0.22"></path><path style="opacity: 0.22;" fill="none" stroke="#3e915f" d="M234,0L234,677.3333399999999" stroke-width="44" opacity="0.22"></path><path style="opacity: 0.22;" fill="none" stroke="#3e915f" d="M248,0L248,677.3333399999999" stroke-width="36" opacity="0.22"></path><path style="opacity: 0.22;" fill="none" stroke="#3e915f" d="M268,0L268,677.3333399999999" stroke-width="43" opacity="0.22"></path><path style="opacity: 0.22;" fill="none" stroke="#3e915f" d="M284,0L284,677.3333399999999" stroke-width="42" opacity="0.22"></path><path style="opacity: 0.22;" fill="none" stroke="#3e915f" d="M293,0L293,677.3333399999999" stroke-width="50" opacity="0.22"></path><path style="opacity: 0.22;" fill="none" stroke="#3e915f" d="M294,0L294,677.3333399999999" stroke-width="40" opacity="0.22"></path><path style="opacity: 0.22;" fill="none" stroke="#3e915f" d="M307,0L307,677.3333399999999" stroke-width="44" opacity="0.22"></path><path style="opacity: 0.22;" fill="none" stroke="#3e915f" d="M323,0L323,677.3333399999999" stroke-width="48" opacity="0.22"></path><path style="opacity: 0.22;" fill="none" stroke="#3e915f" d="M329,0L329,677.3333399999999" stroke-width="46" opacity="0.22"></path><path style="opacity: 0.22;" fill="none" stroke="#3e915f" d="M344,0L344,677.3333399999999" stroke-width="50" opacity="0.22"></path><path style="opacity: 0.22;" fill="none" stroke="#3e915f" d="M354,0L354,677.3333399999999" stroke-width="41" opacity="0.22"></path><path style="opacity: 0.22;" fill="none" stroke="#3e915f" d="M374,0L374,677.3333399999999" stroke-width="50" opacity="0.22"></path><path style="opacity: 0.22;" fill="none" stroke="#3e915f" d="M386,0L386,677.3333399999999" stroke-width="47" opacity="0.22"></path><path style="opacity: 0.22;" fill="none" stroke="#3e915f" d="M392,0L392,677.3333399999999" stroke-width="43" opacity="0.22"></path><path style="opacity: 0.22;" fill="none" stroke="#3e915f" d="M407,0L407,677.3333399999999" stroke-width="36" opacity="0.22"></path><path style="opacity: 0.22;" fill="none" stroke="#3e915f" d="M411,0L411,677.3333399999999" stroke-width="36" opacity="0.22"></path><path style="opacity: 0.22;" fill="none" stroke="#3e915f" d="M429,0L429,677.3333399999999" stroke-width="35" opacity="0.22"></path><path style="opacity: 0.22;" fill="none" stroke="#3e915f" d="M441,0L441,677.3333399999999" stroke-width="45" opacity="0.22"></path><path style="opacity: 0.22;" fill="none" stroke="#3e915f" d="M447,0L447,677.3333399999999" stroke-width="41" opacity="0.22"></path><path style="opacity: 0.22;" fill="none" stroke="#3e915f" d="M466,0L466,677.3333399999999" stroke-width="42" opacity="0.22"></path><path style="opacity: 0.22;" fill="none" stroke="#3e915f" d="M486,0L486,677.3333399999999" stroke-width="39" opacity="0.22"></path><path style="opacity: 0.22;" fill="none" stroke="#3e915f" d="M496,0L496,677.3333399999999" stroke-width="45" opacity="0.22"></path><path style="opacity: 0.22;" fill="none" stroke="#3e915f" d="M500,0L500,677.3333399999999" stroke-width="43" opacity="0.22"></path><path style="opacity: 0.22;" fill="none" stroke="#3e915f" d="M511,0L511,677.3333399999999" stroke-width="41" opacity="0.22"></path><path style="opacity: 0.22;" fill="none" stroke="#3e915f" d="M511,0L511,677.3333399999999" stroke-width="44" opacity="0.22"></path><path style="opacity: 0.22;" fill="none" stroke="#3e915f" d="M521,0L521,677.3333399999999" stroke-width="38" opacity="0.22"></path><path style="opacity: 0.22;" fill="none" stroke="#3e915f" d="M521,0L521,677.3333399999999" stroke-width="47" opacity="0.22"></path><path style="opacity: 0.22;" fill="none" stroke="#3e915f" d="M532,0L532,677.3333399999999" stroke-width="39" opacity="0.22"></path><path style="opacity: 0.22;" fill="none" stroke="#3e915f" d="M550,0L550,677.3333399999999" stroke-width="50" opacity="0.22"></path><path style="opacity: 0.22;" fill="none" stroke="#3e915f" d="M552,0L552,677.3333399999999" stroke-width="47" opacity="0.22"></path><path style="opacity: 0.22;" fill="none" stroke="#3e915f" d="M568,0L568,677.3333399999999" stroke-width="38" opacity="0.22"></path><path style="opacity: 0.22;" fill="none" stroke="#3e915f" d="M572,0L572,677.3333399999999" stroke-width="38" opacity="0.22"></path><path style="opacity: 0.22;" fill="none" stroke="#3e915f" d="M592,0L592,677.3333399999999" stroke-width="43" opacity="0.22"></path><path style="opacity: 0.22;" fill="none" stroke="#3e915f" d="M604,0L604,677.3333399999999" stroke-width="35" opacity="0.22"></path><path style="opacity: 0.22;" fill="none" stroke="#3e915f" d="M608,0L608,677.3333399999999" stroke-width="41" opacity="0.22"></path><path style="opacity: 0.22;" fill="none" stroke="#3e915f" d="M628,0L628,677.3333399999999" stroke-width="49" opacity="0.22"></path><path style="opacity: 0.22;" fill="none" stroke="#3e915f" d="M628,0L628,677.3333399999999" stroke-width="47" opacity="0.22"></path><path style="opacity: 0.22;" fill="none" stroke="#3e915f" d="M639,0L639,677.3333399999999" stroke-width="38" opacity="0.22"></path><path style="opacity: 0.22;" fill="none" stroke="#3e915f" d="M657,0L657,677.3333399999999" stroke-width="40" opacity="0.22"></path><path style="opacity: 0.22;" fill="none" stroke="#3e915f" d="M668,0L668,677.3333399999999" stroke-width="38" opacity="0.22"></path><path style="opacity: 0.22;" fill="none" stroke="#3e915f" d="M677,0L677,677.3333399999999" stroke-width="48" opacity="0.22"></path><path style="opacity: 0.22;" fill="none" stroke="#3e915f" d="M693,0L693,677.3333399999999" stroke-width="38" opacity="0.22"></path><path style="opacity: 0.22;" fill="none" stroke="#3e915f" d="M711,0L711,677.3333399999999" stroke-width="48" opacity="0.22"></path><path style="opacity: 0.22;" fill="none" stroke="#3e915f" d="M729,0L729,677.3333399999999" stroke-width="40" opacity="0.22"></path><path style="opacity: 0.22;" fill="none" stroke="#3e915f" d="M741,0L741,677.3333399999999" stroke-width="43" opacity="0.22"></path><path style="opacity: 0.22;" fill="none" stroke="#3e915f" d="M761,0L761,677.3333399999999" stroke-width="43" opacity="0.22"></path><path style="opacity: 0.22;" fill="none" stroke="#3e915f" d="M772,0L772,677.3333399999999" stroke-width="41" opacity="0.22"></path><path style="opacity: 0.22;" fill="none" stroke="#3e915f" d="M790,0L790,677.3333399999999" stroke-width="38" opacity="0.22"></path><path style="opacity: 0.22;" fill="none" stroke="#3e915f" d="M795,0L795,677.3333399999999" stroke-width="41" opacity="0.22"></path><path style="opacity: 0.22;" fill="none" stroke="#3e915f" d="M802,0L802,677.3333399999999" stroke-width="45" opacity="0.22"></path><path style="opacity: 0.22;" fill="none" stroke="#3e915f" d="M808,0L808,677.3333399999999" stroke-width="45" opacity="0.22"></path><path style="opacity: 0.22;" fill="none" stroke="#3e915f" d="M817,0L817,677.3333399999999" stroke-width="49" opacity="0.22"></path><path style="opacity: 0.22;" fill="none" stroke="#3e915f" d="M837,0L837,677.3333399999999" stroke-width="36" opacity="0.22"></path><path style="opacity: 0.22;" fill="none" stroke="#3e915f" d="M851,0L851,677.3333399999999" stroke-width="48" opacity="0.22"></path><path style="opacity: 0.22;" fill="none" stroke="#3e915f" d="M859,0L859,677.3333399999999" stroke-width="36" opacity="0.22"></path><path style="opacity: 0.22;" fill="none" stroke="#3e915f" d="M866,0L866,677.3333399999999" stroke-width="38" opacity="0.22"></path><path style="opacity: 0.22;" fill="none" stroke="#3e915f" d="M867,0L867,677.3333399999999" stroke-width="49" opacity="0.22"></path><path style="opacity: 0.22;" fill="none" stroke="#3e915f" d="M876,0L876,677.3333399999999" stroke-width="49" opacity="0.22"></path><path style="opacity: 0.22;" fill="none" stroke="#3e915f" d="M892,0L892,677.3333399999999" stroke-width="50" opacity="0.22"></path><path style="opacity: 0.22;" fill="none" stroke="#3e915f" d="M909,0L909,677.3333399999999" stroke-width="42" opacity="0.22"></path><path style="opacity: 0.22;" fill="none" stroke="#3e915f" d="M912,0L912,677.3333399999999" stroke-width="50" opacity="0.22"></path><path style="opacity: 0.22;" fill="none" stroke="#3e915f" d="M924,0L924,677.3333399999999" stroke-width="38" opacity="0.22"></path><path style="opacity: 0.22;" fill="none" stroke="#3e915f" d="M932,0L932,677.3333399999999" stroke-width="46" opacity="0.22"></path><path style="opacity: 0.22;" fill="none" stroke="#3e915f" d="M935,0L935,677.3333399999999" stroke-width="44" opacity="0.22"></path><path style="opacity: 0.22;" fill="none" stroke="#3e915f" d="M937,0L937,677.3333399999999" stroke-width="35" opacity="0.22"></path><path style="opacity: 0.22;" fill="none" stroke="#3e915f" d="M941,0L941,677.3333399999999" stroke-width="36" opacity="0.22"></path><path style="opacity: 0.22;" fill="none" stroke="#3e915f" d="M941,0L941,677.3333399999999" stroke-width="41" opacity="0.22"></path><path style="opacity: 0.22;" fill="none" stroke="#3e915f" d="M944,0L944,677.3333399999999" stroke-width="45" opacity="0.22"></path><path style="opacity: 0.22;" fill="none" stroke="#3e915f" d="M960,0L960,677.3333399999999" stroke-width="42" opacity="0.22"></path><path style="opacity: 0.22;" fill="none" stroke="#3e915f" d="M973,0L973,677.3333399999999" stroke-width="44" opacity="0.22"></path><path style="opacity: 0.22;" fill="none" stroke="#3e915f" d="M989,0L989,677.3333399999999" stroke-width="49" opacity="0.22"></path><path style="opacity: 0.22;" fill="none" stroke="#3e915f" d="M991,0L991,677.3333399999999" stroke-width="42" opacity="0.22"></path><path style="opacity: 0.22;" fill="none" stroke="#3e915f" d="M1010,0L1010,677.3333399999999" stroke-width="35" opacity="0.22"></path><path style="opacity: 0.22;" fill="none" stroke="#3e915f" d="M1017,0L1017,677.3333399999999" stroke-width="43" opacity="0.22"></path><path style="opacity: 0.22;" fill="none" stroke="#3e915f" d="M1020,0L1020,677.3333399999999" stroke-width="44" opacity="0.22"></path><path style="opacity: 0.22;" fill="none" stroke="#3e915f" d="M1028,0L1028,677.3333399999999" stroke-width="35" opacity="0.22"></path><path style="opacity: 0.22;" fill="none" stroke="#3e915f" d="M1047,0L1047,677.3333399999999" stroke-width="46" opacity="0.22"></path><path style="opacity: 0.22;" fill="none" stroke="#3e915f" d="M1049,0L1049,677.3333399999999" stroke-width="50" opacity="0.22"></path><path style="opacity: 0.22;" fill="none" stroke="#3e915f" d="M1068,0L1068,677.3333399999999" stroke-width="43" opacity="0.22"></path><path style="opacity: 0.22;" fill="none" stroke="#3e915f" d="M1069,0L1069,677.3333399999999" stroke-width="50" opacity="0.22"></path><path style="opacity: 0.22;" fill="none" stroke="#3e915f" d="M1070,0L1070,677.3333399999999" stroke-width="50" opacity="0.22"></path><path style="opacity: 0.22;" fill="none" stroke="#3e915f" d="M1070,0L1070,677.3333399999999" stroke-width="47" opacity="0.22"></path><path style="opacity: 0.22;" fill="none" stroke="#3e915f" d="M1071,0L1071,677.3333399999999" stroke-width="35" opacity="0.22"></path><path style="opacity: 0.22;" fill="none" stroke="#3e915f" d="M1084,0L1084,677.3333399999999" stroke-width="36" opacity="0.22"></path><path style="opacity: 0.22;" fill="none" stroke="#3e915f" d="M1092,0L1092,677.3333399999999" stroke-width="46" opacity="0.22"></path><path style="opacity: 0.22;" fill="none" stroke="#3e915f" d="M1097,0L1097,677.3333399999999" stroke-width="48" opacity="0.22"></path><path style="opacity: 0.22;" fill="none" stroke="#3e915f" d="M1103,0L1103,677.3333399999999" stroke-width="39" opacity="0.22"></path><path style="opacity: 0.22;" fill="none" stroke="#3e915f" d="M1116,0L1116,677.3333399999999" stroke-width="43" opacity="0.22"></path><path style="opacity: 0.22;" fill="none" stroke="#3e915f" d="M1123,0L1123,677.3333399999999" stroke-width="47" opacity="0.22"></path><path style="opacity: 0.22;" fill="none" stroke="#3e915f" d="M1140,0L1140,677.3333399999999" stroke-width="48" opacity="0.22"></path></svg>