<svg height="676.6666600000001" version="1.1" width="1146.6666599999999" xmlns="http://www.w3.org/2000/svg" style="overflow: hidden; position: relative; left: -0.166687px; top: -0.333344px;"><desc>Created with Raphaël 2.0.1</desc><defs></defs><rect x="0" y="0" width="1146.6666599999999" height="676.6666600000001" r="0" rx="0" ry="0" fill="#f5f5f5" stroke="none" style=""></rect><ellipse cx="393" cy="273" rx="122" ry="172.01999999999998" fill="none" stroke="#555555" transform="matrix(1,0,0,1,0,0)" style="opacity: 0.5;" stroke-width="1" opacity="0.5"></ellipse><ellipse cx="813" cy="346" rx="130" ry="183.29999999999998" fill="none" stroke="#555555" transform="matrix(0.9808,0.1951,-0.1951,0.9808,83.1228,-151.9601)" style="opacity: 0.5;" stroke-width="1" opacity="0.5"></ellipse><ellipse cx="824" cy="310" rx="122" ry="172.01999999999998" fill="none" stroke="#555555" transform="matrix(0.9239,0.3827,-0.3827,0.9239,181.3551,-291.7338)" style="opacity: 0.5;" stroke-width="1" opacity="0.5"></ellipse><ellipse cx="534" cy="295" rx="126" ry="177.66" fill="none" stroke="#555555" transform="matrix(0.8315,0.5556,-0.5556,0.8315,253.8884,-246.958)" style="opacity: 0.5;" stroke-width="1" opacity="0.5"></ellipse><ellipse cx="376" cy="344" rx="126" ry="177.66" fill="none" stroke="#555555" transform="matrix(0.7071,0.7071,-0.7071,0.7071,353.3726,-165.1169)" style="opacity: 0.5;" stroke-width="1" opacity="0.5"></ellipse><ellipse cx="605" cy="264" rx="125" ry="176.25" fill="none" stroke="#555555" transform="matrix(0.5556,0.8315,-0.8315,0.5556,488.388,-385.7097)" style="opacity: 0.5;" stroke-width="1" opacity="0.5"></ellipse><ellipse cx="824" cy="390" rx="120" ry="169.2" fill="none" stroke="#555555" transform="matrix(0.3827,0.9239,-0.9239,0.3827,868.9819,-520.5233)" style="opacity: 0.5;" stroke-width="1" opacity="0.5"></ellipse><ellipse cx="324" cy="382" rx="124" ry="174.84" fill="none" stroke="#555555" transform="matrix(0.1951,0.9808,-0.9808,0.1951,635.4507,-10.2989)" style="opacity: 0.5;" stroke-width="1" opacity="0.5"></ellipse><ellipse cx="798" cy="295" rx="125" ry="176.25" fill="none" stroke="#555555" transform="matrix(0,1,-1,0,1093,-503)" style="opacity: 0.5;" stroke-width="1" opacity="0.5"></ellipse><ellipse cx="803" cy="303" rx="123" ry="173.42999999999998" fill="none" stroke="#555555" transform="matrix(-0.1951,0.9808,-0.9808,-0.1951,1256.8355,-425.4582)" style="opacity: 0.5;" stroke-width="1" opacity="0.5"></ellipse><ellipse cx="750" cy="353" rx="122" ry="172.01999999999998" fill="none" stroke="#555555" transform="matrix(-0.3827,0.9239,-0.9239,-0.3827,1363.142,-204.8224)" style="opacity: 0.5;" stroke-width="1" opacity="0.5"></ellipse><ellipse cx="663" cy="244" rx="126" ry="177.66" fill="none" stroke="#555555" transform="matrix(-0.5556,0.8315,-0.8315,-0.5556,1234.2217,-171.7052)" style="opacity: 0.5;" stroke-width="1" opacity="0.5"></ellipse><ellipse cx="343" cy="393" rx="128" ry="180.48" fill="none" stroke="#555555" transform="matrix(-0.7071,0.7071,-0.7071,-0.7071,863.4306,428.3553)" style="opacity: 0.5;" stroke-width="1" opacity="0.5"></ellipse><ellipse cx="601" cy="435" rx="123" ry="173.42999999999998" fill="none" stroke="#555555" transform="matrix(-0.8315,0.5556,-0.5556,-0.8315,1342.3863,462.7916)" style="opacity: 0.5;" stroke-width="1" opacity="0.5"></ellipse><ellipse cx="517" cy="354" rx="124" ry="174.84" fill="none" stroke="#555555" transform="matrix(-0.9239,0.3827,-0.3827,-0.9239,1130.1157,483.206)" style="opacity: 0.5;" stroke-width="1" opacity="0.5"></ellipse><ellipse cx="767" cy="380" rx="123" ry="173.42999999999998" fill="none" stroke="#555555" transform="matrix(-0.9808,0.1951,-0.1951,-0.9808,1593.3966,603.0641)" style="opacity: 0.5;" stroke-width="1" opacity="0.5"></ellipse><ellipse cx="546" cy="398" rx="127" ry="179.07" fill="none" stroke="#555555" transform="matrix(-1,0,0,-1,1092,796)" style="opacity: 0.5;" stroke-width="1" opacity="0.5"></ellipse><ellipse cx="680" cy="291" rx="127" ry="179.07" fill="none" stroke="#555555" transform="matrix(-0.9808,-0.1951,0.1951,-0.9808,1290.1627,709.0699)" style="opacity: 0.5;" stroke-width="1" opacity="0.5"></ellipse><ellipse cx="783" cy="407" rx="124" ry="174.84" fill="none" stroke="#555555" transform="matrix(-0.9239,-0.3827,0.3827,-0.9239,1350.6455,1082.6601)" style="opacity: 0.5;" stroke-width="1" opacity="0.5"></ellipse><ellipse cx="622" cy="431" rx="123" ry="173.42999999999998" fill="none" stroke="#555555" transform="matrix(-0.8315,-0.5556,0.5556,-0.8315,899.7233,1134.9281)" style="opacity: 0.5;" stroke-width="1" opacity="0.5"></ellipse><ellipse cx="547" cy="343" rx="121" ry="170.60999999999999" fill="none" stroke="#555555" transform="matrix(-0.7071,-0.7071,0.7071,-0.7071,691.2498,972.325)" style="opacity: 0.5;" stroke-width="1" opacity="0.5"></ellipse><ellipse cx="596" cy="279" rx="126" ry="177.66" fill="none" stroke="#555555" transform="matrix(-0.5556,-0.8315,0.8315,-0.5556,695.1398,929.56)" style="opacity: 0.5;" stroke-width="1" opacity="0.5"></ellipse><ellipse cx="738" cy="368" rx="124" ry="174.84" fill="none" stroke="#555555" transform="matrix(-0.3827,-0.9239,0.9239,-0.3827,680.4327,1190.6506)" style="opacity: 0.5;" stroke-width="1" opacity="0.5"></ellipse><ellipse cx="651" cy="425" rx="121" ry="170.60999999999999" fill="none" stroke="#555555" transform="matrix(-0.1951,-0.9808,0.9808,-0.1951,361.1701,1146.4046)" style="opacity: 0.5;" stroke-width="1" opacity="0.5"></ellipse><ellipse cx="451" cy="430" rx="121" ry="170.60999999999999" fill="none" stroke="#555555" transform="matrix(0,-1,1,0,21,881)" style="opacity: 0.5;" stroke-width="1" opacity="0.5"></ellipse><ellipse cx="708" cy="407" rx="128" ry="180.48" fill="none" stroke="#555555" transform="matrix(0.1951,-0.9808,0.9808,0.1951,170.6964,1021.9942)" style="opacity: 0.5;" stroke-width="1" opacity="0.5"></ellipse><ellipse cx="354" cy="334" rx="129" ry="181.89" fill="none" stroke="#555555" transform="matrix(0.3827,-0.9239,0.9239,0.3827,-90.0457,533.2371)" style="opacity: 0.5;" stroke-width="1" opacity="0.5"></ellipse><ellipse cx="539" cy="414" rx="128" ry="180.48" fill="none" stroke="#555555" transform="matrix(0.5556,-0.8315,0.8315,0.5556,-104.6808,632.156)" style="opacity: 0.5;" stroke-width="1" opacity="0.5"></ellipse><ellipse cx="482" cy="371" rx="127" ry="179.07" fill="none" stroke="#555555" transform="matrix(0.7071,-0.7071,0.7071,0.7071,-121.1621,449.4889)" style="opacity: 0.5;" stroke-width="1" opacity="0.5"></ellipse><ellipse cx="663" cy="384" rx="123" ry="173.42999999999998" fill="none" stroke="#555555" transform="matrix(0.8315,-0.5556,0.5556,0.8315,-101.6033,433.0587)" style="opacity: 0.5;" stroke-width="1" opacity="0.5"></ellipse><ellipse cx="429" cy="313" rx="125" ry="176.25" fill="none" stroke="#555555" transform="matrix(0.9239,-0.3827,0.3827,0.9239,-87.1242,187.9969)" style="opacity: 0.5;" stroke-width="1" opacity="0.5"></ellipse><ellipse cx="767" cy="278" rx="124" ry="174.84" fill="none" stroke="#555555" transform="matrix(0.9808,-0.1951,0.1951,0.9808,-39.4974,154.976)" style="opacity: 0.5;" stroke-width="1" opacity="0.5"></ellipse></svg>