<svg height="676.6666600000001" version="1.1" width="1146.6666599999999" xmlns="http://www.w3.org/2000/svg" style="overflow: hidden; position: relative; left: -0.166687px; top: -0.333344px;"><desc>Created with Raphaël 2.0.1</desc><defs></defs><rect x="0" y="0" width="1146.6666599999999" height="676.6666600000001" r="0" rx="0" ry="0" fill="none" stroke="none" style=""></rect><path style="opacity: 0.2;" fill="#dcc2d7" stroke="#5b5521" d="M160,658S849,146,881,376" stroke-width="16" opacity="0.2"></path><path style="opacity: 0.2;" fill="#dcc2d7" stroke="#5b5521" d="M160,658S523,183,777,299" stroke-width="15" opacity="0.2"></path><path style="opacity: 0.2;" fill="#dcc2d7" stroke="#5b5521" d="M160,658S958,233,195,319" stroke-width="15" opacity="0.2"></path><path style="opacity: 0.2;" fill="#dcc2d7" stroke="#5b5521" d="M160,658S539,264,689,341" stroke-width="14" opacity="0.2"></path><path style="opacity: 0.2;" fill="#dcc2d7" stroke="#5b5521" d="M160,658S239,27,921,479" stroke-width="16" opacity="0.2"></path><path style="opacity: 0.2;" fill="#dcc2d7" stroke="#5b5521" d="M160,658S597,510,692,42" stroke-width="16" opacity="0.2"></path><path style="opacity: 0.2;" fill="#dcc2d7" stroke="#5b5521" d="M160,658S294,624,158,90" stroke-width="16" opacity="0.2"></path><path style="opacity: 0.2;" fill="#dcc2d7" stroke="#5b5521" d="M160,658S422,711,433,522" stroke-width="14" opacity="0.2"></path><path style="opacity: 0.2;" fill="#dcc2d7" stroke="#5b5521" d="M160,658S194,84,808,345" stroke-width="14" opacity="0.2"></path><path style="opacity: 0.2;" fill="#dcc2d7" stroke="#5b5521" d="M160,658S765,569,647,220" stroke-width="15" opacity="0.2"></path><path style="opacity: 0.2;" fill="#dcc2d7" stroke="#5b5521" d="M160,658S275,297,906,470" stroke-width="14" opacity="0.2"></path><path style="opacity: 0.2;" fill="#dcc2d7" stroke="#5b5521" d="M160,658S887,351,190,618" stroke-width="14" opacity="0.2"></path><path style="opacity: 0.2;" fill="#dcc2d7" stroke="#5b5521" d="M160,658S197,442,922,645" stroke-width="16" opacity="0.2"></path><path style="opacity: 0.2;" fill="#dcc2d7" stroke="#5b5521" d="M160,658S1056,220,508,603" stroke-width="14" opacity="0.2"></path><path style="opacity: 0.2;" fill="#dcc2d7" stroke="#5b5521" d="M160,658S886,242,527,96" stroke-width="14" opacity="0.2"></path><path style="opacity: 0.2;" fill="#dcc2d7" stroke="#5b5521" d="M160,658S813,631,788,165" stroke-width="16" opacity="0.2"></path><path style="opacity: 0.2;" fill="#dcc2d7" stroke="#5b5521" d="M160,658S267,439,779,109" stroke-width="14" opacity="0.2"></path><path style="opacity: 0.2;" fill="#dcc2d7" stroke="#5b5521" d="M160,658S997,622,605,365" stroke-width="14" opacity="0.2"></path><path style="opacity: 0.2;" fill="#dcc2d7" stroke="#5b5521" d="M160,658S1012,469,953,198" stroke-width="14" opacity="0.2"></path><path style="opacity: 0.2;" fill="#dcc2d7" stroke="#5b5521" d="M160,658S130,569,369,450" stroke-width="14" opacity="0.2"></path><path style="opacity: 0.2;" fill="#dcc2d7" stroke="#5b5521" d="M160,658S515,537,116,453" stroke-width="14" opacity="0.2"></path><path style="opacity: 0.2;" fill="#dcc2d7" stroke="#5b5521" d="M160,658S498,49,245,456" stroke-width="14" opacity="0.2"></path><path style="opacity: 0.2;" fill="#dcc2d7" stroke="#5b5521" d="M160,658S450,697,668,605" stroke-width="16" opacity="0.2"></path><path style="opacity: 0.2;" fill="#dcc2d7" stroke="#5b5521" d="M160,658S240,275,302,703" stroke-width="16" opacity="0.2"></path><path style="opacity: 0.2;" fill="#dcc2d7" stroke="#5b5521" d="M160,658S632,146,626,713" stroke-width="16" opacity="0.2"></path><path style="opacity: 0.2;" fill="#dcc2d7" stroke="#5b5521" d="M160,658S985,124,1031,640" stroke-width="16" opacity="0.2"></path><path style="opacity: 0.2;" fill="#dcc2d7" stroke="#5b5521" d="M160,658S1000,614,410,298" stroke-width="16" opacity="0.2"></path><path style="opacity: 0.2;" fill="#dcc2d7" stroke="#5b5521" d="M160,658S923,592,103,64" stroke-width="16" opacity="0.2"></path><path style="opacity: 0.2;" fill="#dcc2d7" stroke="#5b5521" d="M160,658S930,372,461,141" stroke-width="15" opacity="0.2"></path><path style="opacity: 0.2;" fill="#dcc2d7" stroke="#5b5521" d="M160,658S146,390,281,117" stroke-width="16" opacity="0.2"></path><path style="opacity: 0.2;" fill="#dcc2d7" stroke="#5b5521" d="M160,658S897,512,566,287" stroke-width="15" opacity="0.2"></path><path style="opacity: 0.2;" fill="#dcc2d7" stroke="#5b5521" d="M160,658S747,496,634,656" stroke-width="16" opacity="0.2"></path><path style="opacity: 0.2;" fill="#dcc2d7" stroke="#5b5521" d="M160,658S266,140,579,470" stroke-width="14" opacity="0.2"></path><path style="opacity: 0.2;" fill="#dcc2d7" stroke="#5b5521" d="M160,658S444,177,459,565" stroke-width="14" opacity="0.2"></path><path style="opacity: 0.2;" fill="#dcc2d7" stroke="#5b5521" d="M160,658S713,511,175,84" stroke-width="15" opacity="0.2"></path><path style="opacity: 0.2;" fill="#dcc2d7" stroke="#5b5521" d="M160,658S988,454,888,255" stroke-width="16" opacity="0.2"></path><path style="opacity: 0.2;" fill="#dcc2d7" stroke="#5b5521" d="M160,658S871,645,517,252" stroke-width="16" opacity="0.2"></path><path style="opacity: 0.2;" fill="#dcc2d7" stroke="#5b5521" d="M160,658S482,504,439,326" stroke-width="16" opacity="0.2"></path><path style="opacity: 0.2;" fill="#dcc2d7" stroke="#5b5521" d="M160,658S739,590,614,584" stroke-width="14" opacity="0.2"></path><path style="opacity: 0.2;" fill="#dcc2d7" stroke="#5b5521" d="M160,658S808,578,427,468" stroke-width="16" opacity="0.2"></path><path style="opacity: 0.2;" fill="#dcc2d7" stroke="#5b5521" d="M160,658S482,539,255,490" stroke-width="16" opacity="0.2"></path><path style="opacity: 0.2;" fill="#dcc2d7" stroke="#5b5521" d="M160,658S594,281,439,335" stroke-width="15" opacity="0.2"></path><path style="opacity: 0.2;" fill="#dcc2d7" stroke="#5b5521" d="M160,658S1020,116,511,65" stroke-width="16" opacity="0.2"></path><path style="opacity: 0.2;" fill="#dcc2d7" stroke="#5b5521" d="M160,658S634,114,182,638" stroke-width="16" opacity="0.2"></path><path style="opacity: 0.2;" fill="#dcc2d7" stroke="#5b5521" d="M160,658S348,54,114,311" stroke-width="16" opacity="0.2"></path><path style="opacity: 0.2;" fill="#dcc2d7" stroke="#5b5521" d="M160,658S450,167,422,467" stroke-width="16" opacity="0.2"></path><path style="opacity: 0.2;" fill="#dcc2d7" stroke="#5b5521" d="M160,658S911,268,92,478" stroke-width="16" opacity="0.2"></path><path style="opacity: 0.2;" fill="#dcc2d7" stroke="#5b5521" d="M160,658S825,657,239,360" stroke-width="14" opacity="0.2"></path><path style="opacity: 0.2;" fill="#dcc2d7" stroke="#5b5521" d="M160,658S899,660,488,404" stroke-width="16" opacity="0.2"></path><path style="opacity: 0.2;" fill="#dcc2d7" stroke="#5b5521" d="M160,658S189,481,1038,209" stroke-width="15" opacity="0.2"></path><path style="opacity: 0.2;" fill="#dcc2d7" stroke="#5b5521" d="M160,658S523,64,971,155" stroke-width="15" opacity="0.2"></path><path style="opacity: 0.2;" fill="#dcc2d7" stroke="#5b5521" d="M160,658S644,264,393,476" stroke-width="15" opacity="0.2"></path><path style="opacity: 0.2;" fill="#dcc2d7" stroke="#5b5521" d="M160,658S804,712,149,217" stroke-width="14" opacity="0.2"></path><path style="opacity: 0.2;" fill="#dcc2d7" stroke="#5b5521" d="M160,658S845,198,981,257" stroke-width="15" opacity="0.2"></path><path style="opacity: 0.2;" fill="#dcc2d7" stroke="#5b5521" d="M160,658S472,687,551,362" stroke-width="16" opacity="0.2"></path><path style="opacity: 0.2;" fill="#dcc2d7" stroke="#5b5521" d="M160,658S819,106,756,172" stroke-width="14" opacity="0.2"></path><path style="opacity: 0.2;" fill="#dcc2d7" stroke="#5b5521" d="M160,658S985,416,106,197" stroke-width="14" opacity="0.2"></path><path style="opacity: 0.2;" fill="#dcc2d7" stroke="#5b5521" d="M160,658S652,145,417,280" stroke-width="16" opacity="0.2"></path><path style="opacity: 0.2;" fill="#dcc2d7" stroke="#5b5521" d="M160,658S566,503,373,3" stroke-width="14" opacity="0.2"></path><path style="opacity: 0.2;" fill="#dcc2d7" stroke="#5b5521" d="M160,658S628,602,1038,248" stroke-width="15" opacity="0.2"></path></svg>