<svg height="676.6666600000001" version="1.1" width="1146.6666599999999" xmlns="http://www.w3.org/2000/svg" style="overflow: hidden; position: relative; left: -0.166687px; top: -0.333344px;"><desc>Created with Raphaël 2.0.1</desc><defs></defs><rect x="0" y="0" width="1146.6666599999999" height="676.6666600000001" r="0" rx="0" ry="0" fill="#333333" stroke="none" style=""></rect><path style="opacity: 0.5;" fill="none" stroke="#ffffff" d="M498,134L350,538" stroke-width="4" opacity="0.5"></path><path style="opacity: 0.5;" fill="none" stroke="#ffffff" d="M498,134L884,-48" stroke-width="8" opacity="0.5"></path><path style="opacity: 0.5;" fill="none" stroke="#ffffff" d="M498,134L2,691" stroke-width="12" opacity="0.5"></path><path style="opacity: 0.5;" fill="none" stroke="#ffffff" d="M498,134L441,513" stroke-width="1" opacity="0.5"></path><path style="opacity: 0.5;" fill="none" stroke="#ffffff" d="M498,134L160,715" stroke-width="3" opacity="0.5"></path><path style="opacity: 0.5;" fill="none" stroke="#ffffff" d="M498,134L369,435" stroke-width="11" opacity="0.5"></path><path style="opacity: 0.5;" fill="none" stroke="#ffffff" d="M498,134L529,-8" stroke-width="2" opacity="0.5"></path><path style="opacity: 0.5;" fill="none" stroke="#ffffff" d="M498,134L966,299" stroke-width="8" opacity="0.5"></path><path style="opacity: 0.5;" fill="none" stroke="#ffffff" d="M498,134L85,615" stroke-width="12" opacity="0.5"></path><path style="opacity: 0.5;" fill="none" stroke="#ffffff" d="M498,134L558,457" stroke-width="3" opacity="0.5"></path><path style="opacity: 0.5;" fill="none" stroke="#ffffff" d="M498,134L750,241" stroke-width="5" opacity="0.5"></path><path style="opacity: 0.5;" fill="none" stroke="#ffffff" d="M498,134L690,680" stroke-width="8" opacity="0.5"></path><path style="opacity: 0.5;" fill="none" stroke="#ffffff" d="M498,134L939,628" stroke-width="8" opacity="0.5"></path><path style="opacity: 0.5;" fill="none" stroke="#ffffff" d="M498,134L390,92" stroke-width="3" opacity="0.5"></path><path style="opacity: 0.5;" fill="none" stroke="#ffffff" d="M498,134L706,277" stroke-width="5" opacity="0.5"></path><path style="opacity: 0.5;" fill="none" stroke="#ffffff" d="M498,134L723,458" stroke-width="12" opacity="0.5"></path><path style="opacity: 0.5;" fill="none" stroke="#ffffff" d="M498,134L69,563" stroke-width="3" opacity="0.5"></path><path style="opacity: 0.5;" fill="none" stroke="#ffffff" d="M498,134L766,526" stroke-width="7" opacity="0.5"></path><path style="opacity: 0.5;" fill="none" stroke="#ffffff" d="M498,134L204,712" stroke-width="3" opacity="0.5"></path><path style="opacity: 0.5;" fill="none" stroke="#ffffff" d="M498,134L-43,566" stroke-width="11" opacity="0.5"></path><path style="opacity: 0.5;" fill="none" stroke="#ffffff" d="M498,134L697,531" stroke-width="7" opacity="0.5"></path><path style="opacity: 0.5;" fill="none" stroke="#ffffff" d="M498,134L576,-33" stroke-width="2" opacity="0.5"></path><path style="opacity: 0.5;" fill="none" stroke="#ffffff" d="M498,134L867,551" stroke-width="5" opacity="0.5"></path><path style="opacity: 0.5;" fill="none" stroke="#ffffff" d="M498,134L86,529" stroke-width="4" opacity="0.5"></path><path style="opacity: 0.5;" fill="none" stroke="#ffffff" d="M498,134L700,200" stroke-width="4" opacity="0.5"></path><path style="opacity: 0.5;" fill="none" stroke="#ffffff" d="M498,134L124,22" stroke-width="8" opacity="0.5"></path><path style="opacity: 0.5;" fill="none" stroke="#ffffff" d="M498,134L1045,450" stroke-width="8" opacity="0.5"></path><path style="opacity: 0.5;" fill="none" stroke="#ffffff" d="M498,134L300,52" stroke-width="1" opacity="0.5"></path><path style="opacity: 0.5;" fill="none" stroke="#ffffff" d="M498,134L547,556" stroke-width="9" opacity="0.5"></path><path style="opacity: 0.5;" fill="none" stroke="#ffffff" d="M498,134L1086,195" stroke-width="10" opacity="0.5"></path><path style="opacity: 0.5;" fill="none" stroke="#ffffff" d="M498,134L558,134" stroke-width="3" opacity="0.5"></path><path style="opacity: 0.5;" fill="none" stroke="#ffffff" d="M498,134L1,337" stroke-width="8" opacity="0.5"></path><path style="opacity: 0.5;" fill="none" stroke="#ffffff" d="M498,134L130,636" stroke-width="1" opacity="0.5"></path><path style="opacity: 0.5;" fill="none" stroke="#ffffff" d="M498,134L93,553" stroke-width="7" opacity="0.5"></path><path style="opacity: 0.5;" fill="none" stroke="#ffffff" d="M498,134L103,408" stroke-width="1" opacity="0.5"></path><path style="opacity: 0.5;" fill="none" stroke="#ffffff" d="M498,134L909,191" stroke-width="7" opacity="0.5"></path><path style="opacity: 0.5;" fill="none" stroke="#ffffff" d="M498,134L1138,601" stroke-width="9" opacity="0.5"></path><path style="opacity: 0.5;" fill="none" stroke="#ffffff" d="M498,134L878,374" stroke-width="1" opacity="0.5"></path><path style="opacity: 0.5;" fill="none" stroke="#ffffff" d="M498,134L361,340" stroke-width="2" opacity="0.5"></path><path style="opacity: 0.5;" fill="none" stroke="#ffffff" d="M498,134L938,144" stroke-width="4" opacity="0.5"></path><path style="opacity: 0.5;" fill="none" stroke="#ffffff" d="M498,134L921,67" stroke-width="3" opacity="0.5"></path><path style="opacity: 0.5;" fill="none" stroke="#ffffff" d="M498,134L747,445" stroke-width="4" opacity="0.5"></path><path style="opacity: 0.5;" fill="none" stroke="#ffffff" d="M498,134L580,235" stroke-width="5" opacity="0.5"></path><path style="opacity: 0.5;" fill="none" stroke="#ffffff" d="M498,134L1053,93" stroke-width="4" opacity="0.5"></path><path style="opacity: 0.5;" fill="none" stroke="#ffffff" d="M498,134L985,613" stroke-width="5" opacity="0.5"></path><path style="opacity: 0.5;" fill="none" stroke="#ffffff" d="M498,134L190,-27" stroke-width="2" opacity="0.5"></path><path style="opacity: 0.5;" fill="none" stroke="#ffffff" d="M498,134L501,-39" stroke-width="5" opacity="0.5"></path><path style="opacity: 0.5;" fill="none" stroke="#ffffff" d="M498,134L489,-31" stroke-width="6" opacity="0.5"></path><path style="opacity: 0.5;" fill="none" stroke="#ffffff" d="M498,134L658,609" stroke-width="1" opacity="0.5"></path><path style="opacity: 0.5;" fill="none" stroke="#ffffff" d="M498,134L-17,688" stroke-width="7" opacity="0.5"></path><path style="opacity: 0.5;" fill="none" stroke="#ffffff" d="M498,134L207,518" stroke-width="11" opacity="0.5"></path><path style="opacity: 0.5;" fill="none" stroke="#ffffff" d="M498,134L836,-5" stroke-width="1" opacity="0.5"></path><path style="opacity: 0.5;" fill="none" stroke="#ffffff" d="M498,134L288,318" stroke-width="4" opacity="0.5"></path><path style="opacity: 0.5;" fill="none" stroke="#ffffff" d="M498,134L160,-33" stroke-width="8" opacity="0.5"></path><path style="opacity: 0.5;" fill="none" stroke="#ffffff" d="M498,134L1119,347" stroke-width="5" opacity="0.5"></path><path style="opacity: 0.5;" fill="none" stroke="#ffffff" d="M498,134L320,558" stroke-width="1" opacity="0.5"></path><path style="opacity: 0.5;" fill="none" stroke="#ffffff" d="M498,134L953,454" stroke-width="9" opacity="0.5"></path><path style="opacity: 0.5;" fill="none" stroke="#ffffff" d="M498,134L19,319" stroke-width="12" opacity="0.5"></path><path style="opacity: 0.5;" fill="none" stroke="#ffffff" d="M498,134L545,392" stroke-width="1" opacity="0.5"></path><path style="opacity: 0.5;" fill="none" stroke="#ffffff" d="M498,134L999,155" stroke-width="12" opacity="0.5"></path><path style="opacity: 0.5;" fill="none" stroke="#ffffff" d="M498,134L711,511" stroke-width="5" opacity="0.5"></path><path style="opacity: 0.5;" fill="none" stroke="#ffffff" d="M498,134L1060,606" stroke-width="8" opacity="0.5"></path><path style="opacity: 0.5;" fill="none" stroke="#ffffff" d="M498,134L26,678" stroke-width="8" opacity="0.5"></path><path style="opacity: 0.5;" fill="none" stroke="#ffffff" d="M498,134L332,421" stroke-width="8" opacity="0.5"></path><path style="opacity: 0.5;" fill="none" stroke="#ffffff" d="M498,134L1115,337" stroke-width="5" opacity="0.5"></path><path style="opacity: 0.5;" fill="none" stroke="#ffffff" d="M498,134L1061,255" stroke-width="8" opacity="0.5"></path><path style="opacity: 0.5;" fill="none" stroke="#ffffff" d="M498,134L95,178" stroke-width="12" opacity="0.5"></path><path style="opacity: 0.5;" fill="none" stroke="#ffffff" d="M498,134L934,234" stroke-width="1" opacity="0.5"></path><path style="opacity: 0.5;" fill="none" stroke="#ffffff" d="M498,134L157,550" stroke-width="1" opacity="0.5"></path><path style="opacity: 0.5;" fill="none" stroke="#ffffff" d="M498,134L96,647" stroke-width="12" opacity="0.5"></path><path style="opacity: 0.5;" fill="none" stroke="#ffffff" d="M498,134L806,620" stroke-width="10" opacity="0.5"></path><path style="opacity: 0.5;" fill="none" stroke="#ffffff" d="M498,134L960,601" stroke-width="8" opacity="0.5"></path><path style="opacity: 0.5;" fill="none" stroke="#ffffff" d="M498,134L1020,338" stroke-width="9" opacity="0.5"></path><path style="opacity: 0.5;" fill="none" stroke="#ffffff" d="M498,134L825,555" stroke-width="1" opacity="0.5"></path><path style="opacity: 0.5;" fill="none" stroke="#ffffff" d="M498,134L714,635" stroke-width="8" opacity="0.5"></path><path style="opacity: 0.5;" fill="none" stroke="#ffffff" d="M498,134L-15,152" stroke-width="12" opacity="0.5"></path><path style="opacity: 0.5;" fill="none" stroke="#ffffff" d="M498,134L827,460" stroke-width="4" opacity="0.5"></path><path style="opacity: 0.5;" fill="none" stroke="#ffffff" d="M498,134L510,508" stroke-width="11" opacity="0.5"></path><path style="opacity: 0.5;" fill="none" stroke="#ffffff" d="M498,134L1194,629" stroke-width="3" opacity="0.5"></path><path style="opacity: 0.5;" fill="none" stroke="#ffffff" d="M498,134L342,699" stroke-width="12" opacity="0.5"></path><path style="opacity: 0.5;" fill="none" stroke="#ffffff" d="M498,134L606,190" stroke-width="12" opacity="0.5"></path><path style="opacity: 0.5;" fill="none" stroke="#ffffff" d="M498,134L1120,222" stroke-width="2" opacity="0.5"></path><path style="opacity: 0.5;" fill="none" stroke="#ffffff" d="M498,134L1130,678" stroke-width="10" opacity="0.5"></path><path style="opacity: 0.5;" fill="none" stroke="#ffffff" d="M498,134L249,-32" stroke-width="1" opacity="0.5"></path><path style="opacity: 0.5;" fill="none" stroke="#ffffff" d="M498,134L573,567" stroke-width="10" opacity="0.5"></path><path style="opacity: 0.5;" fill="none" stroke="#ffffff" d="M498,134L1145,117" stroke-width="4" opacity="0.5"></path><path style="opacity: 0.5;" fill="none" stroke="#ffffff" d="M498,134L483,622" stroke-width="11" opacity="0.5"></path><path style="opacity: 0.5;" fill="none" stroke="#ffffff" d="M498,134L602,-12" stroke-width="5" opacity="0.5"></path><path style="opacity: 0.5;" fill="none" stroke="#ffffff" d="M498,134L553,418" stroke-width="3" opacity="0.5"></path><path style="opacity: 0.5;" fill="none" stroke="#ffffff" d="M498,134L816,455" stroke-width="9" opacity="0.5"></path><path style="opacity: 0.5;" fill="none" stroke="#ffffff" d="M498,134L848,708" stroke-width="5" opacity="0.5"></path><path style="opacity: 0.5;" fill="none" stroke="#ffffff" d="M498,134L-27,623" stroke-width="7" opacity="0.5"></path><path style="opacity: 0.5;" fill="none" stroke="#ffffff" d="M498,134L193,351" stroke-width="7" opacity="0.5"></path><path style="opacity: 0.5;" fill="none" stroke="#ffffff" d="M498,134L1157,593" stroke-width="6" opacity="0.5"></path><path style="opacity: 0.5;" fill="none" stroke="#ffffff" d="M498,134L946,342" stroke-width="12" opacity="0.5"></path><path style="opacity: 0.5;" fill="none" stroke="#ffffff" d="M498,134L813,629" stroke-width="1" opacity="0.5"></path><path style="opacity: 0.5;" fill="none" stroke="#ffffff" d="M498,134L848,9" stroke-width="3" opacity="0.5"></path><path style="opacity: 0.5;" fill="none" stroke="#ffffff" d="M498,134L-29,216" stroke-width="10" opacity="0.5"></path><path style="opacity: 0.5;" fill="none" stroke="#ffffff" d="M498,134L12,-34" stroke-width="8" opacity="0.5"></path><path style="opacity: 0.5;" fill="none" stroke="#ffffff" d="M498,134L488,351" stroke-width="8" opacity="0.5"></path><path style="opacity: 0.5;" fill="none" stroke="#ffffff" d="M498,134L232,158" stroke-width="4" opacity="0.5"></path><path style="opacity: 0.5;" fill="none" stroke="#ffffff" d="M498,134L1173,548" stroke-width="5" opacity="0.5"></path><path style="opacity: 0.5;" fill="none" stroke="#ffffff" d="M498,134L973,273" stroke-width="1" opacity="0.5"></path><path style="opacity: 0.5;" fill="none" stroke="#ffffff" d="M498,134L294,-5" stroke-width="1" opacity="0.5"></path><path style="opacity: 0.5;" fill="none" stroke="#ffffff" d="M498,134L387,601" stroke-width="3" opacity="0.5"></path><path style="opacity: 0.5;" fill="none" stroke="#ffffff" d="M498,134L823,349" stroke-width="4" opacity="0.5"></path><path style="opacity: 0.5;" fill="none" stroke="#ffffff" d="M498,134L1172,549" stroke-width="4" opacity="0.5"></path><path style="opacity: 0.5;" fill="none" stroke="#ffffff" d="M498,134L1084,244" stroke-width="12" opacity="0.5"></path><path style="opacity: 0.5;" fill="none" stroke="#ffffff" d="M498,134L74,667" stroke-width="5" opacity="0.5"></path><path style="opacity: 0.5;" fill="none" stroke="#ffffff" d="M498,134L-17,167" stroke-width="6" opacity="0.5"></path><path style="opacity: 0.5;" fill="none" stroke="#ffffff" d="M498,134L619,127" stroke-width="10" opacity="0.5"></path><path style="opacity: 0.5;" fill="none" stroke="#ffffff" d="M498,134L827,227" stroke-width="12" opacity="0.5"></path><path style="opacity: 0.5;" fill="none" stroke="#ffffff" d="M498,134L-46,667" stroke-width="7" opacity="0.5"></path><path style="opacity: 0.5;" fill="none" stroke="#ffffff" d="M498,134L563,694" stroke-width="6" opacity="0.5"></path><path style="opacity: 0.5;" fill="none" stroke="#ffffff" d="M498,134L165,554" stroke-width="5" opacity="0.5"></path><path style="opacity: 0.5;" fill="none" stroke="#ffffff" d="M498,134L854,656" stroke-width="7" opacity="0.5"></path><path style="opacity: 0.5;" fill="none" stroke="#ffffff" d="M498,134L28,-50" stroke-width="4" opacity="0.5"></path><path style="opacity: 0.5;" fill="none" stroke="#ffffff" d="M498,134L487,411" stroke-width="1" opacity="0.5"></path><path style="opacity: 0.5;" fill="none" stroke="#ffffff" d="M498,134L326,699" stroke-width="4" opacity="0.5"></path><path style="opacity: 0.5;" fill="none" stroke="#ffffff" d="M498,134L363,-35" stroke-width="11" opacity="0.5"></path><path style="opacity: 0.5;" fill="none" stroke="#ffffff" d="M498,134L1090,646" stroke-width="12" opacity="0.5"></path><path style="opacity: 0.5;" fill="none" stroke="#ffffff" d="M498,134L304,203" stroke-width="8" opacity="0.5"></path><path style="opacity: 0.5;" fill="none" stroke="#ffffff" d="M498,134L942,269" stroke-width="5" opacity="0.5"></path><path style="opacity: 0.5;" fill="none" stroke="#ffffff" d="M498,134L1012,562" stroke-width="5" opacity="0.5"></path><path style="opacity: 0.5;" fill="none" stroke="#ffffff" d="M498,134L309,25" stroke-width="3" opacity="0.5"></path><path style="opacity: 0.5;" fill="none" stroke="#ffffff" d="M498,134L16,21" stroke-width="3" opacity="0.5"></path><path style="opacity: 0.5;" fill="none" stroke="#ffffff" d="M498,134L803,14" stroke-width="2" opacity="0.5"></path><path style="opacity: 0.5;" fill="none" stroke="#ffffff" d="M498,134L387,52" stroke-width="10" opacity="0.5"></path><path style="opacity: 0.5;" fill="none" stroke="#ffffff" d="M498,134L1058,-25" stroke-width="3" opacity="0.5"></path><path style="opacity: 0.5;" fill="none" stroke="#ffffff" d="M498,134L295,414" stroke-width="11" opacity="0.5"></path><path style="opacity: 0.5;" fill="none" stroke="#ffffff" d="M498,134L1111,235" stroke-width="2" opacity="0.5"></path><path style="opacity: 0.5;" fill="none" stroke="#ffffff" d="M498,134L356,538" stroke-width="6" opacity="0.5"></path><path style="opacity: 0.5;" fill="none" stroke="#ffffff" d="M498,134L886,151" stroke-width="1" opacity="0.5"></path><path style="opacity: 0.5;" fill="none" stroke="#ffffff" d="M498,134L908,486" stroke-width="8" opacity="0.5"></path><path style="opacity: 0.5;" fill="none" stroke="#ffffff" d="M498,134L-50,279" stroke-width="11" opacity="0.5"></path><path style="opacity: 0.5;" fill="none" stroke="#ffffff" d="M498,134L190,656" stroke-width="5" opacity="0.5"></path><path style="opacity: 0.5;" fill="none" stroke="#ffffff" d="M498,134L1135,291" stroke-width="3" opacity="0.5"></path><path style="opacity: 0.5;" fill="none" stroke="#ffffff" d="M498,134L78,489" stroke-width="9" opacity="0.5"></path><path style="opacity: 0.5;" fill="none" stroke="#ffffff" d="M498,134L212,623" stroke-width="12" opacity="0.5"></path><path style="opacity: 0.5;" fill="none" stroke="#ffffff" d="M498,134L887,705" stroke-width="2" opacity="0.5"></path><path style="opacity: 0.5;" fill="none" stroke="#ffffff" d="M498,134L755,-11" stroke-width="6" opacity="0.5"></path><path style="opacity: 0.5;" fill="none" stroke="#ffffff" d="M498,134L947,388" stroke-width="4" opacity="0.5"></path><path style="opacity: 0.5;" fill="none" stroke="#ffffff" d="M498,134L-42,553" stroke-width="4" opacity="0.5"></path><path style="opacity: 0.5;" fill="none" stroke="#ffffff" d="M498,134L79,-7" stroke-width="9" opacity="0.5"></path><path style="opacity: 0.5;" fill="none" stroke="#ffffff" d="M498,134L822,438" stroke-width="5" opacity="0.5"></path><path style="opacity: 0.5;" fill="none" stroke="#ffffff" d="M498,134L183,252" stroke-width="12" opacity="0.5"></path><path style="opacity: 0.5;" fill="none" stroke="#ffffff" d="M498,134L-11,429" stroke-width="9" opacity="0.5"></path><path style="opacity: 0.5;" fill="none" stroke="#ffffff" d="M498,134L322,95" stroke-width="7" opacity="0.5"></path><path style="opacity: 0.5;" fill="none" stroke="#ffffff" d="M498,134L106,96" stroke-width="11" opacity="0.5"></path><path style="opacity: 0.5;" fill="none" stroke="#ffffff" d="M498,134L352,675" stroke-width="8" opacity="0.5"></path><path style="opacity: 0.5;" fill="none" stroke="#ffffff" d="M498,134L749,45" stroke-width="5" opacity="0.5"></path><path style="opacity: 0.5;" fill="none" stroke="#ffffff" d="M498,134L1086,542" stroke-width="4" opacity="0.5"></path><path style="opacity: 0.5;" fill="none" stroke="#ffffff" d="M498,134L812,579" stroke-width="1" opacity="0.5"></path><path style="opacity: 0.5;" fill="none" stroke="#ffffff" d="M498,134L991,-30" stroke-width="7" opacity="0.5"></path><path style="opacity: 0.5;" fill="none" stroke="#ffffff" d="M498,134L132,-15" stroke-width="8" opacity="0.5"></path><path style="opacity: 0.5;" fill="none" stroke="#ffffff" d="M498,134L307,592" stroke-width="12" opacity="0.5"></path><path style="opacity: 0.5;" fill="none" stroke="#ffffff" d="M498,134L-37,215" stroke-width="6" opacity="0.5"></path><path style="opacity: 0.5;" fill="none" stroke="#ffffff" d="M498,134L1130,206" stroke-width="5" opacity="0.5"></path><path style="opacity: 0.5;" fill="none" stroke="#ffffff" d="M498,134L993,17" stroke-width="7" opacity="0.5"></path><path style="opacity: 0.5;" fill="none" stroke="#ffffff" d="M498,134L464,306" stroke-width="9" opacity="0.5"></path><path style="opacity: 0.5;" fill="none" stroke="#ffffff" d="M498,134L746,622" stroke-width="5" opacity="0.5"></path><path style="opacity: 0.5;" fill="none" stroke="#ffffff" d="M498,134L684,248" stroke-width="10" opacity="0.5"></path><path style="opacity: 0.5;" fill="none" stroke="#ffffff" d="M498,134L977,118" stroke-width="6" opacity="0.5"></path><path style="opacity: 0.5;" fill="none" stroke="#ffffff" d="M498,134L1147,-6" stroke-width="12" opacity="0.5"></path><path style="opacity: 0.5;" fill="none" stroke="#ffffff" d="M498,134L105,452" stroke-width="6" opacity="0.5"></path><path style="opacity: 0.5;" fill="none" stroke="#ffffff" d="M498,134L223,593" stroke-width="9" opacity="0.5"></path><path style="opacity: 0.5;" fill="none" stroke="#ffffff" d="M498,134L306,197" stroke-width="8" opacity="0.5"></path><path style="opacity: 0.5;" fill="none" stroke="#ffffff" d="M498,134L65,515" stroke-width="12" opacity="0.5"></path><path style="opacity: 0.5;" fill="none" stroke="#ffffff" d="M498,134L597,145" stroke-width="10" opacity="0.5"></path><path style="opacity: 0.5;" fill="none" stroke="#ffffff" d="M498,134L509,253" stroke-width="12" opacity="0.5"></path><path style="opacity: 0.5;" fill="none" stroke="#ffffff" d="M498,134L327,488" stroke-width="4" opacity="0.5"></path><path style="opacity: 0.5;" fill="none" stroke="#ffffff" d="M498,134L1194,9" stroke-width="10" opacity="0.5"></path><path style="opacity: 0.5;" fill="none" stroke="#ffffff" d="M498,134L763,103" stroke-width="6" opacity="0.5"></path><path style="opacity: 0.5;" fill="none" stroke="#ffffff" d="M498,134L769,142" stroke-width="11" opacity="0.5"></path><path style="opacity: 0.5;" fill="none" stroke="#ffffff" d="M498,134L460,36" stroke-width="12" opacity="0.5"></path><path style="opacity: 0.5;" fill="none" stroke="#ffffff" d="M498,134L561,92" stroke-width="10" opacity="0.5"></path><path style="opacity: 0.5;" fill="none" stroke="#ffffff" d="M498,134L1082,483" stroke-width="10" opacity="0.5"></path><path style="opacity: 0.5;" fill="none" stroke="#ffffff" d="M498,134L580,277" stroke-width="11" opacity="0.5"></path><path style="opacity: 0.5;" fill="none" stroke="#ffffff" d="M498,134L1036,128" stroke-width="1" opacity="0.5"></path><path style="opacity: 0.5;" fill="none" stroke="#ffffff" d="M498,134L446,691" stroke-width="12" opacity="0.5"></path><path style="opacity: 0.5;" fill="none" stroke="#ffffff" d="M498,134L879,427" stroke-width="9" opacity="0.5"></path><path style="opacity: 0.5;" fill="none" stroke="#ffffff" d="M498,134L112,392" stroke-width="8" opacity="0.5"></path><path style="opacity: 0.5;" fill="none" stroke="#ffffff" d="M498,134L865,443" stroke-width="1" opacity="0.5"></path><path style="opacity: 0.5;" fill="none" stroke="#ffffff" d="M498,134L685,434" stroke-width="2" opacity="0.5"></path><path style="opacity: 0.5;" fill="none" stroke="#ffffff" d="M498,134L899,200" stroke-width="2" opacity="0.5"></path><path style="opacity: 0.5;" fill="none" stroke="#ffffff" d="M498,134L1081,438" stroke-width="2" opacity="0.5"></path><path style="opacity: 0.5;" fill="none" stroke="#ffffff" d="M498,134L693,541" stroke-width="1" opacity="0.5"></path><path style="opacity: 0.5;" fill="none" stroke="#ffffff" d="M498,134L296,381" stroke-width="10" opacity="0.5"></path><path style="opacity: 0.5;" fill="none" stroke="#ffffff" d="M498,134L1111,-12" stroke-width="10" opacity="0.5"></path><path style="opacity: 0.5;" fill="none" stroke="#ffffff" d="M498,134L558,-17" stroke-width="5" opacity="0.5"></path><path style="opacity: 0.5;" fill="none" stroke="#ffffff" d="M498,134L269,-13" stroke-width="4" opacity="0.5"></path><path style="opacity: 0.5;" fill="none" stroke="#ffffff" d="M498,134L9,259" stroke-width="2" opacity="0.5"></path><path style="opacity: 0.5;" fill="none" stroke="#ffffff" d="M498,134L1066,79" stroke-width="3" opacity="0.5"></path><path style="opacity: 0.5;" fill="none" stroke="#ffffff" d="M498,134L350,-39" stroke-width="5" opacity="0.5"></path><path style="opacity: 0.5;" fill="none" stroke="#ffffff" d="M498,134L187,482" stroke-width="2" opacity="0.5"></path><path style="opacity: 0.5;" fill="none" stroke="#ffffff" d="M498,134L934,587" stroke-width="9" opacity="0.5"></path><path style="opacity: 0.5;" fill="none" stroke="#ffffff" d="M498,134L608,391" stroke-width="3" opacity="0.5"></path><path style="opacity: 0.5;" fill="none" stroke="#ffffff" d="M498,134L922,-15" stroke-width="4" opacity="0.5"></path><path style="opacity: 0.5;" fill="none" stroke="#ffffff" d="M498,134L712,49" stroke-width="7" opacity="0.5"></path><path style="opacity: 0.5;" fill="none" stroke="#ffffff" d="M498,134L59,81" stroke-width="8" opacity="0.5"></path></svg>