<svg height="677.3333399999999" version="1.1" width="1147.3333400000001" xmlns="http://www.w3.org/2000/svg" style="overflow: hidden; position: relative; top: -0.666657px;"><desc>Created with Raphaël 2.0.1</desc><defs></defs><rect x="0" y="0" width="1147.3333400000001" height="677.3333399999999" r="0" rx="0" ry="0" fill="#b15a80" stroke="none" style=""></rect><rect x="106" y="148" width="86" height="84" r="5" rx="5" ry="5" fill="#f64e59" stroke="#e45426" transform="matrix(1,0,0,1,-43,-42)" style="opacity: 0.3;" stroke-width="14" opacity="0.3"></rect><rect x="938" y="347" width="56" height="157" r="5" rx="5" ry="5" fill="#f64e59" stroke="#e45426" transform="matrix(1,0,0,1,-28,-78.5)" style="opacity: 0.3;" stroke-width="14" opacity="0.3"></rect><rect x="110" y="338" width="286" height="153" r="5" rx="5" ry="5" fill="#f64e59" stroke="#e45426" transform="matrix(1,0,0,1,-143,-76.5)" style="opacity: 0.3;" stroke-width="14" opacity="0.3"></rect><rect x="466" y="182" width="39" height="107" r="5" rx="5" ry="5" fill="#f64e59" stroke="#e45426" transform="matrix(1,0,0,1,-19.5,-53.5)" style="opacity: 0.3;" stroke-width="14" opacity="0.3"></rect><rect x="79" y="273" width="201" height="62" r="5" rx="5" ry="5" fill="#f64e59" stroke="#e45426" transform="matrix(1,0,0,1,-100.5,-31)" style="opacity: 0.3;" stroke-width="14" opacity="0.3"></rect><rect x="711" y="337" width="96" height="311" r="5" rx="5" ry="5" fill="#f64e59" stroke="#e45426" transform="matrix(1,0,0,1,-48,-155.5)" style="opacity: 0.3;" stroke-width="14" opacity="0.3"></rect><rect x="436" y="489" width="158" height="196" r="5" rx="5" ry="5" fill="#f64e59" stroke="#e45426" transform="matrix(1,0,0,1,-79,-98)" style="opacity: 0.3;" stroke-width="14" opacity="0.3"></rect><rect x="1063" y="457" width="279" height="274" r="5" rx="5" ry="5" fill="#f64e59" stroke="#e45426" transform="matrix(1,0,0,1,-139.5,-137)" style="opacity: 0.3;" stroke-width="14" opacity="0.3"></rect><rect x="999" y="445" width="91" height="190" r="5" rx="5" ry="5" fill="#f64e59" stroke="#e45426" transform="matrix(1,0,0,1,-45.5,-95)" style="opacity: 0.3;" stroke-width="14" opacity="0.3"></rect><rect x="744" y="310" width="294" height="310" r="5" rx="5" ry="5" fill="#f64e59" stroke="#e45426" transform="matrix(1,0,0,1,-147,-155)" style="opacity: 0.3;" stroke-width="14" opacity="0.3"></rect><rect x="562" y="302" width="196" height="202" r="5" rx="5" ry="5" fill="#f64e59" stroke="#e45426" transform="matrix(1,0,0,1,-98,-101)" style="opacity: 0.3;" stroke-width="14" opacity="0.3"></rect><rect x="712" y="312" width="311" height="57" r="5" rx="5" ry="5" fill="#f64e59" stroke="#e45426" transform="matrix(1,0,0,1,-155.5,-28.5)" style="opacity: 0.3;" stroke-width="14" opacity="0.3"></rect><rect x="976" y="503" width="206" height="157" r="5" rx="5" ry="5" fill="#f64e59" stroke="#e45426" transform="matrix(1,0,0,1,-103,-78.5)" style="opacity: 0.3;" stroke-width="14" opacity="0.3"></rect><rect x="648" y="522" width="78" height="246" r="5" rx="5" ry="5" fill="#f64e59" stroke="#e45426" transform="matrix(1,0,0,1,-39,-123)" style="opacity: 0.3;" stroke-width="14" opacity="0.3"></rect><rect x="620" y="415" width="260" height="189" r="5" rx="5" ry="5" fill="#f64e59" stroke="#e45426" transform="matrix(1,0,0,1,-130,-94.5)" style="opacity: 0.3;" stroke-width="14" opacity="0.3"></rect><rect x="860" y="386" width="238" height="47" r="5" rx="5" ry="5" fill="#f64e59" stroke="#e45426" transform="matrix(1,0,0,1,-119,-23.5)" style="opacity: 0.3;" stroke-width="14" opacity="0.3"></rect><rect x="27" y="487" width="42" height="224" r="5" rx="5" ry="5" fill="#f64e59" stroke="#e45426" transform="matrix(1,0,0,1,-21,-112)" style="opacity: 0.3;" stroke-width="14" opacity="0.3"></rect><rect x="866" y="463" width="99" height="226" r="5" rx="5" ry="5" fill="#f64e59" stroke="#e45426" transform="matrix(1,0,0,1,-49.5,-113)" style="opacity: 0.3;" stroke-width="14" opacity="0.3"></rect><rect x="1008" y="325" width="318" height="151" r="5" rx="5" ry="5" fill="#f64e59" stroke="#e45426" transform="matrix(1,0,0,1,-159,-75.5)" style="opacity: 0.3;" stroke-width="14" opacity="0.3"></rect><rect x="1018" y="364" width="136" height="80" r="5" rx="5" ry="5" fill="#f64e59" stroke="#e45426" transform="matrix(1,0,0,1,-68,-40)" style="opacity: 0.3;" stroke-width="14" opacity="0.3"></rect><rect x="1151" y="408" width="53" height="296" r="5" rx="5" ry="5" fill="#f64e59" stroke="#e45426" transform="matrix(1,0,0,1,-26.5,-148)" style="opacity: 0.3;" stroke-width="14" opacity="0.3"></rect><rect x="1022" y="522" width="154" height="26" r="5" rx="5" ry="5" fill="#f64e59" stroke="#e45426" transform="matrix(1,0,0,1,-77,-13)" style="opacity: 0.3;" stroke-width="14" opacity="0.3"></rect><rect x="342" y="216" width="271" height="222" r="5" rx="5" ry="5" fill="#f64e59" stroke="#e45426" transform="matrix(1,0,0,1,-135.5,-111)" style="opacity: 0.3;" stroke-width="14" opacity="0.3"></rect><rect x="746" y="368" width="131" height="239" r="5" rx="5" ry="5" fill="#f64e59" stroke="#e45426" transform="matrix(1,0,0,1,-65.5,-119.5)" style="opacity: 0.3;" stroke-width="14" opacity="0.3"></rect><rect x="170" y="224" width="116" height="47" r="5" rx="5" ry="5" fill="#f64e59" stroke="#e45426" transform="matrix(1,0,0,1,-58,-23.5)" style="opacity: 0.3;" stroke-width="14" opacity="0.3"></rect><rect x="1187" y="408" width="32" height="320" r="5" rx="5" ry="5" fill="#f64e59" stroke="#e45426" transform="matrix(1,0,0,1,-16,-160)" style="opacity: 0.3;" stroke-width="14" opacity="0.3"></rect><rect x="1020" y="496" width="216" height="265" r="5" rx="5" ry="5" fill="#f64e59" stroke="#e45426" transform="matrix(1,0,0,1,-108,-132.5)" style="opacity: 0.3;" stroke-width="14" opacity="0.3"></rect><rect x="906" y="193" width="200" height="277" r="5" rx="5" ry="5" fill="#f64e59" stroke="#e45426" transform="matrix(1,0,0,1,-100,-138.5)" style="opacity: 0.3;" stroke-width="14" opacity="0.3"></rect><rect x="430" y="233" width="318" height="308" r="5" rx="5" ry="5" fill="#f64e59" stroke="#e45426" transform="matrix(1,0,0,1,-159,-154)" style="opacity: 0.3;" stroke-width="14" opacity="0.3"></rect><rect x="597" y="363" width="103" height="216" r="5" rx="5" ry="5" fill="#f64e59" stroke="#e45426" transform="matrix(1,0,0,1,-51.5,-108)" style="opacity: 0.3;" stroke-width="14" opacity="0.3"></rect><rect x="672" y="531" width="243" height="141" r="5" rx="5" ry="5" fill="#f64e59" stroke="#e45426" transform="matrix(1,0,0,1,-121.5,-70.5)" style="opacity: 0.3;" stroke-width="14" opacity="0.3"></rect><rect x="562" y="356" width="172" height="264" r="5" rx="5" ry="5" fill="#f64e59" stroke="#e45426" transform="matrix(1,0,0,1,-86,-132)" style="opacity: 0.3;" stroke-width="14" opacity="0.3"></rect><rect x="216" y="262" width="310" height="110" r="5" rx="5" ry="5" fill="#f64e59" stroke="#e45426" transform="matrix(1,0,0,1,-155,-55)" style="opacity: 0.3;" stroke-width="14" opacity="0.3"></rect><rect x="749" y="150" width="162" height="126" r="5" rx="5" ry="5" fill="#f64e59" stroke="#e45426" transform="matrix(1,0,0,1,-81,-63)" style="opacity: 0.3;" stroke-width="14" opacity="0.3"></rect><rect x="380" y="475" width="197" height="267" r="5" rx="5" ry="5" fill="#f64e59" stroke="#e45426" transform="matrix(1,0,0,1,-98.5,-133.5)" style="opacity: 0.3;" stroke-width="14" opacity="0.3"></rect><rect x="887" y="191" width="234" height="230" r="5" rx="5" ry="5" fill="#f64e59" stroke="#e45426" transform="matrix(1,0,0,1,-117,-115)" style="opacity: 0.3;" stroke-width="14" opacity="0.3"></rect><rect x="495" y="241" width="35" height="309" r="5" rx="5" ry="5" fill="#f64e59" stroke="#e45426" transform="matrix(1,0,0,1,-17.5,-154.5)" style="opacity: 0.3;" stroke-width="14" opacity="0.3"></rect><rect x="679" y="342" width="179" height="147" r="5" rx="5" ry="5" fill="#f64e59" stroke="#e45426" transform="matrix(1,0,0,1,-89.5,-73.5)" style="opacity: 0.3;" stroke-width="14" opacity="0.3"></rect><rect x="629" y="197" width="130" height="261" r="5" rx="5" ry="5" fill="#f64e59" stroke="#e45426" transform="matrix(1,0,0,1,-65,-130.5)" style="opacity: 0.3;" stroke-width="14" opacity="0.3"></rect><rect x="209" y="232" width="230" height="22" r="5" rx="5" ry="5" fill="#f64e59" stroke="#e45426" transform="matrix(1,0,0,1,-115,-11)" style="opacity: 0.3;" stroke-width="14" opacity="0.3"></rect><rect x="429" y="289" width="177" height="298" r="5" rx="5" ry="5" fill="#f64e59" stroke="#e45426" transform="matrix(1,0,0,1,-88.5,-149)" style="opacity: 0.3;" stroke-width="14" opacity="0.3"></rect><rect x="918" y="504" width="238" height="153" r="5" rx="5" ry="5" fill="#f64e59" stroke="#e45426" transform="matrix(1,0,0,1,-119,-76.5)" style="opacity: 0.3;" stroke-width="14" opacity="0.3"></rect><rect x="1199" y="255" width="156" height="137" r="5" rx="5" ry="5" fill="#f64e59" stroke="#e45426" transform="matrix(1,0,0,1,-78,-68.5)" style="opacity: 0.3;" stroke-width="14" opacity="0.3"></rect><rect x="444" y="235" width="82" height="226" r="5" rx="5" ry="5" fill="#f64e59" stroke="#e45426" transform="matrix(1,0,0,1,-41,-113)" style="opacity: 0.3;" stroke-width="14" opacity="0.3"></rect><rect x="1034" y="219" width="205" height="200" r="5" rx="5" ry="5" fill="#f64e59" stroke="#e45426" transform="matrix(1,0,0,1,-102.5,-100)" style="opacity: 0.3;" stroke-width="14" opacity="0.3"></rect><rect x="834" y="244" width="45" height="287" r="5" rx="5" ry="5" fill="#f64e59" stroke="#e45426" transform="matrix(1,0,0,1,-22.5,-143.5)" style="opacity: 0.3;" stroke-width="14" opacity="0.3"></rect><rect x="430" y="230" width="204" height="150" r="5" rx="5" ry="5" fill="#f64e59" stroke="#e45426" transform="matrix(1,0,0,1,-102,-75)" style="opacity: 0.3;" stroke-width="14" opacity="0.3"></rect><rect x="644" y="491" width="320" height="182" r="5" rx="5" ry="5" fill="#f64e59" stroke="#e45426" transform="matrix(1,0,0,1,-160,-91)" style="opacity: 0.3;" stroke-width="14" opacity="0.3"></rect><rect x="42" y="453" width="33" height="158" r="5" rx="5" ry="5" fill="#f64e59" stroke="#e45426" transform="matrix(1,0,0,1,-16.5,-79)" style="opacity: 0.3;" stroke-width="14" opacity="0.3"></rect><rect x="97" y="314" width="184" height="83" r="5" rx="5" ry="5" fill="#f64e59" stroke="#e45426" transform="matrix(1,0,0,1,-92,-41.5)" style="opacity: 0.3;" stroke-width="14" opacity="0.3"></rect><rect x="684" y="337" width="114" height="69" r="5" rx="5" ry="5" fill="#f64e59" stroke="#e45426" transform="matrix(1,0,0,1,-57,-34.5)" style="opacity: 0.3;" stroke-width="14" opacity="0.3"></rect><rect x="60" y="513" width="107" height="220" r="5" rx="5" ry="5" fill="#f64e59" stroke="#e45426" transform="matrix(1,0,0,1,-53.5,-110)" style="opacity: 0.3;" stroke-width="14" opacity="0.3"></rect><rect x="1067" y="293" width="63" height="116" r="5" rx="5" ry="5" fill="#f64e59" stroke="#e45426" transform="matrix(1,0,0,1,-31.5,-58)" style="opacity: 0.3;" stroke-width="14" opacity="0.3"></rect><rect x="545" y="469" width="124" height="272" r="5" rx="5" ry="5" fill="#f64e59" stroke="#e45426" transform="matrix(1,0,0,1,-62,-136)" style="opacity: 0.3;" stroke-width="14" opacity="0.3"></rect><rect x="228" y="385" width="197" height="215" r="5" rx="5" ry="5" fill="#f64e59" stroke="#e45426" transform="matrix(1,0,0,1,-98.5,-107.5)" style="opacity: 0.3;" stroke-width="14" opacity="0.3"></rect><rect x="403" y="159" width="99" height="276" r="5" rx="5" ry="5" fill="#f64e59" stroke="#e45426" transform="matrix(1,0,0,1,-49.5,-138)" style="opacity: 0.3;" stroke-width="14" opacity="0.3"></rect><rect x="689" y="412" width="147" height="140" r="5" rx="5" ry="5" fill="#f64e59" stroke="#e45426" transform="matrix(1,0,0,1,-73.5,-70)" style="opacity: 0.3;" stroke-width="14" opacity="0.3"></rect><rect x="801" y="343" width="113" height="283" r="5" rx="5" ry="5" fill="#f64e59" stroke="#e45426" transform="matrix(1,0,0,1,-56.5,-141.5)" style="opacity: 0.3;" stroke-width="14" opacity="0.3"></rect><rect x="1006" y="324" width="316" height="137" r="5" rx="5" ry="5" fill="#f64e59" stroke="#e45426" transform="matrix(1,0,0,1,-158,-68.5)" style="opacity: 0.3;" stroke-width="14" opacity="0.3"></rect><rect x="303" y="522" width="148" height="312" r="5" rx="5" ry="5" fill="#f64e59" stroke="#e45426" transform="matrix(1,0,0,1,-74,-156)" style="opacity: 0.3;" stroke-width="14" opacity="0.3"></rect><rect x="485" y="522" width="202" height="31" r="5" rx="5" ry="5" fill="#f64e59" stroke="#e45426" transform="matrix(1,0,0,1,-101,-15.5)" style="opacity: 0.3;" stroke-width="14" opacity="0.3"></rect><rect x="142" y="313" width="123" height="120" r="5" rx="5" ry="5" fill="#f64e59" stroke="#e45426" transform="matrix(1,0,0,1,-61.5,-60)" style="opacity: 0.3;" stroke-width="14" opacity="0.3"></rect><rect x="1135" y="319" width="266" height="269" r="5" rx="5" ry="5" fill="#f64e59" stroke="#e45426" transform="matrix(1,0,0,1,-133,-134.5)" style="opacity: 0.3;" stroke-width="14" opacity="0.3"></rect></svg>