<?xml version="1.0" standalone="no"?>
<!DOCTYPE svg PUBLIC "-//W3C//DTD SVG 20010904//EN"
 "http://www.w3.org/TR/2001/REC-SVG-20010904/DTD/svg10.dtd">
<svg version="1.0" xmlns="http://www.w3.org/2000/svg"
 width="778.000000pt" height="340.000000pt" viewBox="0 0 778.000000 340.000000"
 preserveAspectRatio="xMidYMid meet">

<g transform="translate(0.000000,340.000000) scale(0.100000,-0.100000)"
fill="#000000" stroke="none">
<path d="M1532 2813 c-109 -142 -429 -556 -710 -921 l-512 -663 0 -120 0 -119
665 0 665 0 0 -355 0 -355 135 0 135 0 0 355 0 355 175 0 175 0 0 125 0 125
-175 0 -175 0 0 915 0 915 -89 0 -90 0 -199 -257z m135 -1570 c-2 -2 -243 -2
-535 -1 l-532 3 533 697 532 698 3 -697 c1 -383 1 -698 -1 -700z"/>
<path d="M6190 2154 l-705 -914 -3 -125 -3 -125 666 0 665 0 0 -355 0 -355
135 0 135 0 0 355 0 355 175 0 175 0 0 125 0 125 -175 0 -175 0 0 915 0 915
-92 0 -93 -1 -705 -915z m650 -214 l0 -700 -535 0 c-294 0 -535 2 -535 5 0 6
1061 1395 1066 1395 2 0 4 -315 4 -700z"/>
<path d="M3268 2702 l-598 -347 0 -680 0 -680 601 -347 600 -348 600 348 599
347 -2 688 -3 689 -599 339 c-329 186 -599 339 -600 338 -1 0 -270 -156 -598
-347z m1138 -123 l514 -291 0 -607 -1 -606 -524 -303 -525 -304 -525 304 -525
303 0 600 1 600 522 302 c287 166 528 300 535 298 8 -3 245 -136 528 -296z"/>
<path d="M3876 2738 c-19 -34 -34 -63 -33 -64 14 -11 370 -214 376 -214 7 0
71 107 71 118 0 4 -60 41 -132 82 -73 41 -158 90 -189 108 l-58 32 -35 -62z"/>
<path d="M4391 2445 c-17 -30 -31 -58 -31 -63 0 -6 363 -222 374 -222 6 0 66
108 66 119 0 7 -360 221 -373 221 -3 0 -19 -25 -36 -55z"/>
<path d="M3743 2301 c-98 -34 -180 -107 -228 -200 -23 -46 -33 -82 -49 -179
l-6 -33 92 3 92 3 7 40 c11 61 25 90 64 134 79 87 208 93 297 13 53 -48 78
-102 78 -172 0 -88 -23 -122 -179 -270 l-141 -134 0 -88 0 -88 95 0 95 0 0 54
0 54 120 113 c152 142 182 194 188 335 5 100 -8 156 -54 238 -33 60 -107 126
-178 161 -78 38 -211 45 -293 16z"/>
<path d="M2880 2000 l0 -220 75 0 75 0 0 220 0 220 -75 0 -75 0 0 -220z"/>
<path d="M2880 1410 l0 -220 75 0 75 0 0 220 0 220 -75 0 -75 0 0 -220z"/>
<path d="M3820 1257 c-39 -13 -80 -67 -80 -104 0 -71 54 -123 127 -123 45 0
77 20 98 60 32 62 4 139 -60 166 -40 16 -40 16 -85 1z"/>
<path d="M4545 1083 c-99 -58 -184 -108 -189 -113 -8 -8 54 -132 64 -128 4 2
90 52 193 111 l187 109 -27 46 c-15 26 -31 54 -37 63 -10 14 -34 3 -191 -88z"/>
<path d="M4018 778 l-188 -109 30 -52 c16 -29 35 -56 42 -60 9 -6 74 27 188
93 96 56 179 106 184 110 8 8 -53 131 -64 129 -3 0 -89 -50 -192 -111z"/>
</g>
</svg>
