<svg height="512pt" viewBox="0 0 512 512" width="512pt" xmlns="http://www.w3.org/2000/svg"><path d="m452 286v61c0 8.398438-6.597656 15-15 15s-15-6.601562-15-15v-46h-151v46c0 8.398438-6.597656 15-15 15s-15-6.601562-15-15v-46h-151v46c0 8.398438-6.597656 15-15 15s-15-6.601562-15-15v-61c0-8.402344 6.597656-15 15-15h166v-45c0-1.800781.300781-3.300781.902344-5.101562h28.195312c.601563 1.800781.902344 3.300781.902344 5.101562v45h166c8.402344 0 15 6.597656 15 15zm0 0" fill="#465a61"/><path d="m271 166v50.097656h-30v-50.097656c0-8.402344 6.597656-15 15-15s15 6.597656 15 15zm0 0" fill="#465a61"/><path d="m437 271h-166c0-32.660156 0-57.382812 0-91.25v-13.75c0-8.402344-6.597656-15-15-15v211c8.402344 0 15-6.601562 15-15v-46h151v46c0 8.398438 6.597656 15 15 15s15-6.601562 15-15v-61c0-8.402344-6.597656-15-15-15zm0 0" fill="#3b4a51"/><path d="m331 226c0 8.398438-6.597656 15-15 15h-120c-8.402344 0-15-6.601562-15-15 0-8.402344 6.597656-15 15-15h120c8.402344 0 15 6.597656 15 15zm0 0" fill="#596c76"/><path d="m497 512h-120c-8.289062 0-15-6.710938-15-15v-150c0-8.289062 6.710938-15 15-15h120c8.289062 0 15 6.710938 15 15v150c0 8.289062-6.710938 15-15 15zm0 0" fill="#596c76"/><path d="m316 332h-120c-8.402344 0-15 6.597656-15 15v150c0 8.398438 6.597656 15 15 15h120c8.402344 0 15-6.601562 15-15v-150c0-8.402344-6.597656-15-15-15zm0 0" fill="#697c86"/><path d="m135 512h-120c-8.289062 0-15-6.710938-15-15v-150c0-8.289062 6.710938-15 15-15h120c8.289062 0 15 6.710938 15 15v150c0 8.289062-6.710938 15-15 15zm0 0" fill="#697c86"/><path d="m331 226c0 8.398438-6.597656 15-15 15h-60v-30h60c8.402344 0 15 6.597656 15 15zm0 0" fill="#465a61"/><path d="m331 347v150c0 8.398438-6.597656 15-15 15h-60v-180h60c8.402344 0 15 6.597656 15 15zm0 0" fill="#596c76"/><path d="m376 0h-240c-8.402344 0-15 6.597656-15 15v151c0 8.398438 6.597656 15 15 15h240c8.402344 0 15-6.601562 15-15v-151c0-8.402344-6.597656-15-15-15zm0 0" fill="#596c76"/><path d="m391 15v151c0 8.398438-6.597656 15-15 15h-120v-181h120c8.402344 0 15 6.597656 15 15zm0 0" fill="#465a61"/><path d="m151 30h210v121h-210zm0 0" fill="#c6e2e7"/><path d="m256 30h105v121h-105zm0 0" fill="#a8d3d8"/><path d="m452 437c0 8.285156-6.714844 15-15 15s-15-6.714844-15-15 6.714844-15 15-15 15 6.714844 15 15zm0 0" fill="#a8d3d8"/><path d="m271 437c0 8.398438-6.597656 15-15 15s-15-6.601562-15-15c0-8.402344 6.597656-15 15-15s15 6.597656 15 15zm0 0" fill="#c6e2e7"/><path d="m90 437c0 8.285156-6.714844 15-15 15s-15-6.714844-15-15 6.714844-15 15-15 15 6.714844 15 15zm0 0" fill="#c6e2e7"/><path d="m271 437c0 8.398438-6.597656 15-15 15v-30c8.402344 0 15 6.597656 15 15zm0 0" fill="#a8d3d8"/></svg>