<?xml version="1.0" encoding="iso-8859-1"?>
<!-- Generator: Adobe Illustrator 16.0.0, SVG Export Plug-In . SVG Version: 6.00 Build 0)  -->
<!DOCTYPE svg PUBLIC "-//W3C//DTD SVG 1.1//EN" "http://www.w3.org/Graphics/SVG/1.1/DTD/svg11.dtd">
<svg xmlns="http://www.w3.org/2000/svg" xmlns:xlink="http://www.w3.org/1999/xlink" version="1.1" id="Capa_1" x="0px" y="0px" width="512px" height="512px" viewBox="0 0 611.988 611.988" style="enable-background:new 0 0 611.988 611.988;" xml:space="preserve">
<g>
	<g id="Shape_24">
		<g>
			<path d="M496.827,397.035c-25.974,0-51.048,10.065-70.075,27.869L205.896,319.509c0.384-3.683,0.588-7.39,0.588-11.062     c0-6.682-0.636-13.329-1.896-19.867l232.493-102.983c19.208,18.763,44.857,29.369,71.659,29.369     c56.938,0,103.248-46.837,103.248-104.412c0-57.575-46.31-104.412-103.248-104.412c-56.927,0-103.235,46.837-103.235,104.412     c0,3.719,0.204,7.462,0.588,11.181L167.96,227.203c-18.344-14.997-41.03-23.167-64.713-23.167     C46.321,204.024,0,250.861,0,308.447c0,57.575,46.321,104.412,103.248,104.412c26.91,0,52.596-10.654,71.803-29.489     l219.429,104.711c-0.588,4.487-0.888,8.962-0.888,13.354c0,57.574,46.309,104.411,103.235,104.411     c56.938,0,103.248-46.837,103.248-104.411C600.075,443.859,553.766,397.035,496.827,397.035z M496.827,581.731     c-43.766,0-79.386-36.027-79.386-80.297c0-5.747,0.672-11.71,2.004-17.685c1.224-5.506-1.487-11.145-6.551-13.557     L177.402,357.816c-1.632-0.78-3.371-1.152-5.087-1.152c-3.383,0-6.707,1.464-9.034,4.188     c-15.128,17.72-37.012,27.881-60.046,27.881c-43.778,0-79.385-36.027-79.385-80.297s35.607-80.285,79.385-80.285     c20.251,0,39.566,7.786,54.395,21.931c3.491,3.335,8.602,4.223,12.969,2.28l253.465-112.246c5.135-2.268,8.014-7.882,6.91-13.437     c-1.067-5.314-1.607-10.737-1.607-16.124c0-44.27,35.619-80.297,79.385-80.297s79.386,36.028,79.386,80.297     s-35.62,80.285-79.386,80.285c-22.878,0-44.665-10.066-59.794-27.605c-3.431-3.983-9.01-5.219-13.772-3.12L185.812,270.548     c-5.543,2.448-8.386,8.722-6.623,14.565c2.279,7.57,3.431,15.428,3.431,23.334c0,5.243-0.528,10.558-1.56,15.776     c-1.08,5.447,1.644,10.905,6.598,13.281l236.512,112.857c4.751,2.268,10.39,1.128,13.917-2.808     c15.068-16.771,36.472-26.394,58.714-26.394c43.766,0,79.386,36.027,79.386,80.285     C576.213,545.716,540.604,581.731,496.827,581.731z" fill="#FFDA44"/>
		</g>
	</g>
</g>
<g>
</g>
<g>
</g>
<g>
</g>
<g>
</g>
<g>
</g>
<g>
</g>
<g>
</g>
<g>
</g>
<g>
</g>
<g>
</g>
<g>
</g>
<g>
</g>
<g>
</g>
<g>
</g>
<g>
</g>
</svg>
