<svg height="512pt" viewBox="-31 0 512 512" width="512pt" xmlns="http://www.w3.org/2000/svg"><path d="m135 422h-60c-8.289062 0-15-6.710938-15-15s6.710938-15 15-15h45v-137c0-8.289062 6.710938-15 15-15s15 6.710938 15 15v152c0 8.289062-6.710938 15-15 15zm0 0" fill="#465a61"/><path d="m240 255v182c0 8.398438-6.597656 15-15 15s-15-6.601562-15-15v-182c0-8.402344 6.597656-15 15-15s15 6.597656 15 15zm0 0" fill="#465a61"/><path d="m375 422h-60c-8.289062 0-15-6.710938-15-15v-152c0-8.289062 6.710938-15 15-15s15 6.710938 15 15v137h45c8.289062 0 15 6.710938 15 15s-6.710938 15-15 15zm0 0" fill="#3b4a51"/><path d="m240 255v182c0 8.398438-6.597656 15-15 15v-212c8.402344 0 15 6.597656 15 15zm0 0" fill="#3b4a51"/><path d="m364.5 90c-17.398438-36.300781-54-60-94.5-60-3.300781 0-6.898438.300781-10.199219.597656-10.5-9.296875-22.203125-16.796875-34.800781-21.898437-14.097656-5.699219-29.398438-8.699219-45-8.699219-56.101562 0-104.699219 39.898438-116.699219 94.199219-37.199219 11.398437-63.300781 45.898437-63.300781 85.800781 0 49.5 40.5 90 90 90h270c49.5 0 90-40.5 90-90 0-48-38.101562-87.601562-85.5-90zm0 0" fill="#c6e2e7"/><path d="m450 180c0 49.5-40.5 90-90 90h-135v-261.300781c12.597656 5.097656 24.300781 12.597656 34.800781 21.898437 3.300781-.296875 6.898438-.597656 10.199219-.597656 40.5 0 77.101562 23.699219 94.5 60 47.398438 2.398438 85.5 42 85.5 90zm0 0" fill="#a8d3d8"/><path d="m45 452c-24.8125 0-45-20.1875-45-45s20.1875-45 45-45 45 20.1875 45 45-20.1875 45-45 45zm0 0" fill="#697c86"/><path d="m225 422c-24.902344 0-45 20.097656-45 45 0 24.898438 20.097656 45 45 45s45-20.101562 45-45c0-24.902344-20.097656-45-45-45zm0 0" fill="#697c86"/><g fill="#596c76"><path d="m405 452c-24.8125 0-45-20.1875-45-45s20.1875-45 45-45 45 20.1875 45 45-20.1875 45-45 45zm0 0"/><path d="m270 467c0 24.898438-20.097656 45-45 45v-90c24.902344 0 45 20.097656 45 45zm0 0"/></g></svg>